<svg xmlns="http://www.w3.org/2000/svg" viewBox="0 0 217 217"><defs><style>.cls-1{fill:#c6f52c;}.cls-2{fill:#3e3e3e;}</style></defs><title>Coporate_Design</title><g id="Ebene_2" data-name="Ebene 2"><g id="Coperate_Design" data-name="Coperate Design"><circle class="cls-1" cx="108.5" cy="108.5" r="108.5"/><path class="cls-2" d="M84.69,162.16c-.45-.39-.84-.7-1.19-1q-12.18-12.18-24.38-24.34c-.86-.85-1-1.36,0-2.3q30.86-30.77,61.61-61.61c1-1,1.54-1,2.53,0q12,12.16,24.18,24.19c1,1,1,1.53,0,2.52Q116.63,130.26,85.94,161C85.54,161.39,85.12,161.76,84.69,162.16Z"/><path class="cls-2" d="M168,74.12a10,10,0,0,1-3,7.43c-3.43,3.52-7,6.93-10.36,10.47-.94,1-1.37.63-2.12-.12q-12.06-12.12-24.19-24.16c-1-1-.82-1.46.06-2.31,3.34-3.25,6.55-6.63,9.92-9.85,4.76-4.56,10.85-4.55,15.57,0,3.65,3.53,7.2,7.16,10.77,10.76A10.47,10.47,0,0,1,168,74.12Z"/><path class="cls-2" d="M55.59,146.94l17.74,17.74c-7,2.18-13.94,4.42-21,6.55-1.81.55-3.86-1.79-3.27-3.67C51.23,160.66,53.43,153.79,55.59,146.94Z"/></g></g></svg>