<svg xmlns="http://www.w3.org/2000/svg" viewBox="0 0 217 217"><defs><style>.cls-1{fill:#c6f52c;}.cls-2{fill:#3e3e3e;}</style></defs><title>Digitaldruck</title><g id="Ebene_2" data-name="Ebene 2"><g id="Digital_Druck" data-name="Digital Druck"><circle class="cls-1" cx="108.5" cy="108.5" r="108.5"/><path class="cls-2" d="M109.11,176.74q-27.6,0-55.2,0a4.47,4.47,0,0,1-3.84-2.06,2.88,2.88,0,0,1-.57-1.8c0-2.08,0-4.16,0-6.23,0-.36-.07-.47-.45-.47-2,0-4.1,0-6.15,0a3.29,3.29,0,0,1-2-.66,5.87,5.87,0,0,1-1.41-1.49,2.92,2.92,0,0,1-.5-1.66q0-24.25,0-48.5a3,3,0,0,1,.54-1.74,5.64,5.64,0,0,1,1.61-1.58,3,3,0,0,1,1.66-.49h9.63c.58,0,.58,0,.58-.56V54.32a17.27,17.27,0,0,1,1.21-6.82,11.6,11.6,0,0,1,8.95-7.14A21,21,0,0,1,67.35,40h83.51a17.78,17.78,0,0,1,6.43,1,11.55,11.55,0,0,1,7.26,8.08,18.77,18.77,0,0,1,.66,5.27q0,27.63,0,55.24c0,.44.11.54.54.54,3.18,0,6.37,0,9.55,0a3.32,3.32,0,0,1,2.13.73,5.83,5.83,0,0,1,1.2,1.23,3.2,3.2,0,0,1,.61,1.92q0,24,0,47.92a4.27,4.27,0,0,1-1.78,3.55,3.31,3.31,0,0,1-2.25.77c-2,0-4.07,0-6.1,0-.34,0-.42.09-.42.42,0,1.94-.06,3.88,0,5.81a4.12,4.12,0,0,1-1.79,3.55,3.46,3.46,0,0,1-2.25.76Zm0-56.1q20.78,0,41.56,0c.4,0,.53,0,.53-.5q0-31.15,0-62.3v-.38a3.39,3.39,0,0,0-2.6-3.35,6,6,0,0,0-1.34-.1H70.34a3.2,3.2,0,0,0-3.19,2.64A4.69,4.69,0,0,0,67,57.78q0,31.2,0,62.39c0,.38.09.48.47.47Q88.3,120.63,109.1,120.64Z"/><path class="cls-2" d="M108.35,68q12.41,0,24.82,0c.41,0,.5.11.49.51q0,6.54,0,13.08c0,.38-.09.46-.46.46q-24.9,0-49.8,0c-.35,0-.47-.06-.47-.45q0-6.59,0-13.17c0-.35.1-.42.44-.42Z"/><path class="cls-2" d="M108.39,106.6H83.65c-.41,0-.5-.1-.49-.5q0-6.54,0-13.08c0-.34.06-.45.42-.44h49.64c.35,0,.44.08.44.43q0,6.57,0,13.13c0,.36-.08.46-.45.46Z"/></g></g></svg>