<svg xmlns="http://www.w3.org/2000/svg" viewBox="0 0 217 217"><defs><style>.cls-1{fill:#c6f52c;}.cls-2{fill:#919191;}.cls-3{fill:#3e3e3e;}</style></defs><title>Flyer</title><g id="Ebene_2" data-name="Ebene 2"><g id="Flyer"><circle class="cls-1" cx="108.5" cy="108.5" r="108.5"/><polygon class="cls-2" points="148 173 62 187 62 43 148 29 148 173"/><rect class="cls-3" x="62" y="43" width="94" height="144"/><path class="cls-1" d="M108.55,129.56h14.79c3.26,0,5.68.77,6.95,2.25s.86,2.87-1.25,4.1a11.41,11.41,0,0,1-5.73,1.26H93.73c-5.62,0-8.83-2.62-7.28-5.09.93-1.48,3.77-2.51,7.17-2.52C98.6,129.54,103.57,129.55,108.55,129.56Z"/><path class="cls-1" d="M108.5,152.46c-2.47,0-4.94,0-7.41,0A3.82,3.82,0,0,1,98,146.18a3.67,3.67,0,0,1,3-1.32c5.06,0,10.12,0,15.18,0a3.8,3.8,0,0,1,2.9,6.31,3.69,3.69,0,0,1-3,1.29C113.53,152.45,111,152.46,108.5,152.46Z"/><polygon class="cls-1" points="109 69.53 137 69.53 123 93.78 109 118.02 95 93.78 81 69.53 109 69.53"/></g></g></svg>