<svg xmlns="http://www.w3.org/2000/svg" viewBox="0 0 217 217"><defs><style>.cls-1{fill:#c6f52c;}.cls-2{fill:#3e3e3e;}</style></defs><title>Folienbeschriftung</title><g id="Ebene_2" data-name="Ebene 2"><g id="Folienbeschriftung"><circle class="cls-1" cx="108.5" cy="108.5" r="108.5"/><path class="cls-2" d="M180.18,96.13V63.06a11,11,0,0,0-11-11H47.82a11,11,0,0,0-11,11V96.13h13.8V154a5.53,5.53,0,0,1-5.54,5.54,2.7,2.7,0,0,0-2.73,2.73V165H69.89v-2.73a2.7,2.7,0,0,0-2.73-2.73A5.53,5.53,0,0,1,61.62,154V96.13h11v16.54A19.42,19.42,0,0,0,84,130.27,18.59,18.59,0,0,0,91.9,132a23.26,23.26,0,0,0,3-.2,21.6,21.6,0,0,0-.2,3,18.68,18.68,0,0,0,1.73,7.93A19.28,19.28,0,0,0,114,154.08h30.35V96.2h11v57.88a5.52,5.52,0,0,1-5.54,5.53,2.7,2.7,0,0,0-2.73,2.74v2.73h27.54v-2.73a2.7,2.7,0,0,0-2.73-2.74,5.52,5.52,0,0,1-5.54-5.53V96.2h13.8Zm-13.8-16.54v-11H50.62v11H72.69V91.2H42.35V62.39a5.52,5.52,0,0,1,5.53-5.54h121.3a5.53,5.53,0,0,1,5.54,5.54V91.2H144.38V79.59Z"/><path class="cls-2" d="M50.62,68.52v11H72.69v11.6H42.35V62.32a5.52,5.52,0,0,1,5.53-5.53l60.62-.47V52.39l-60.61-.47a11,11,0,0,0-11,11V96H50.69v57.88a5.52,5.52,0,0,1-5.54,5.53,2.7,2.7,0,0,0-2.73,2.74v2.73H70v-2.73a2.71,2.71,0,0,0-2.74-2.74,5.52,5.52,0,0,1-5.53-5.53V96h11v16.53A19.42,19.42,0,0,0,84,130.14,18.68,18.68,0,0,0,92,131.87a21.6,21.6,0,0,0,3-.2,23.26,23.26,0,0,0-.2,3,18.59,18.59,0,0,0,1.74,7.94,19.41,19.41,0,0,0,12,10.53V69Z"/></g></g></svg>