<svg xmlns="http://www.w3.org/2000/svg" viewBox="0 0 217 217"><defs><style>.cls-1{fill:#c6f52c;}.cls-2{fill:#3e3e3e;}.cls-3{fill:none;stroke:#919191;stroke-miterlimit:10;}.cls-4{fill:#919191;}</style></defs><title>Foto</title><g id="Ebene_2" data-name="Ebene 2"><g id="Foto"><circle class="cls-1" cx="108.5" cy="108.5" r="108.5"/><polygon class="cls-2" points="183 67 183 159 34 159 34 67 101.56 67 111 50 136 50 145.44 67 183 67"/><path class="cls-3" d="M157.47,113.43a33.55,33.55,0,1,1-33.54-33.54,33.54,33.54,0,0,1,33.54,33.54Z"/><path class="cls-4" d="M110.7,95.52a7.19,7.19,0,1,1-7.18-7.19A7.17,7.17,0,0,1,110.7,95.52Z"/><path class="cls-4" d="M153.52,109.07a37.61,37.61,0,0,1-34,34c.79.05,1.58.09,2.37.09a31.68,31.68,0,0,0,31.73-31.7c0-.79-.06-1.58-.12-2.35Z"/><path class="cls-4" d="M119.54,107.45a2.76,2.76,0,1,1-2.75-2.75A2.76,2.76,0,0,1,119.54,107.45Z"/><path class="cls-4" d="M119.75,52.61h8.34a5.25,5.25,0,0,1,5.25,5.25h0a5.25,5.25,0,0,1-5.25,5.25h-8.34a5.25,5.25,0,0,1-5.25-5.25h0A5.25,5.25,0,0,1,119.75,52.61Z"/></g></g></svg>