<?xml version="1.0" encoding="utf-8"?>
<!-- Generator: Adobe Illustrator 22.0.1, SVG Export Plug-In . SVG Version: 6.00 Build 0)  -->
<svg version="1.1" id="Ebene_1" xmlns="http://www.w3.org/2000/svg" xmlns:xlink="http://www.w3.org/1999/xlink" x="0px" y="0px"
	 viewBox="0 0 217 217" style="enable-background:new 0 0 217 217;" xml:space="preserve">
<style type="text/css">
	.st0{fill:#C6F52C;}
	.st1{enable-background:new    ;}
	.st2{fill:#3E3E3E;}
</style>
<title>LED_Laufschriften</title>
<g id="Ebene_2_1_">
	<g id="LED">
		<circle class="st0" cx="108.5" cy="108.5" r="108.5"/>
		<g id="Ebene_11">
			<g class="st1">
				<path class="st2" d="M12.9,144.7V72.9h14.6v59.6h36.4v12.2H12.9z"/>
				<path class="st2" d="M74.3,144.7V72.3H128v12.3H88.9v16.1h36.4v12.2H88.9v19.7h40.5v12.2H74.3z"/>
				<path class="st2" d="M141.7,72.3h26.7c6,0,10.6,0.5,13.8,1.4c4.2,1.3,7.9,3.5,10.9,6.7c3,3.2,5.3,7.1,6.9,11.7
					c1.6,4.6,2.4,10.3,2.4,17.1c0,6-0.7,11.1-2.2,15.4c-1.8,5.3-4.4,9.5-7.8,12.8c-2.5,2.5-6,4.4-10.3,5.8c-3.2,1-7.5,1.5-12.9,1.5
					h-27.5V72.3z M156.4,84.5v48h10.9c4.1,0,7-0.2,8.8-0.7c2.4-0.6,4.3-1.6,5.9-3c1.6-1.4,2.8-3.7,3.8-7c1-3.2,1.5-7.7,1.5-13.3
					c0-5.6-0.5-9.9-1.5-12.9c-1-3-2.4-5.3-4.2-7c-1.8-1.7-4-2.8-6.8-3.4c-2-0.5-6-0.7-12-0.7H156.4z"/>
			</g>
		</g>
	</g>
</g>
</svg>
