<svg xmlns="http://www.w3.org/2000/svg" viewBox="0 0 217 217"><defs><style>.cls-1{fill:#c6f52c;}.cls-2{fill:#3e3e3e;}</style></defs><title>Lichtwerbung</title><g id="Ebene_2" data-name="Ebene 2"><g id="Lichtwerbung"><circle class="cls-1" cx="108.5" cy="108.5" r="108.5"/><path class="cls-2" d="M127.44,77.17l1.65,1.21a2.47,2.47,0,0,0,.93.8l1.67,1.6.72.77,1.47,1.83.38.51,1.51,2.36a1.2,1.2,0,0,0,.39.74l1.1,2.35a2,2,0,0,0,.43,1l.76,2.38.37,1.21.57,2.84a1.26,1.26,0,0,0,.19,1l.28,3.33,0,1.2-.09,3.57a2.81,2.81,0,0,0-.18,1.43c-.4,1.59-.81,3.18-1.21,4.77a7.17,7.17,0,0,0-.75,1.89,64.21,64.21,0,0,1-5.76,9.32,46.59,46.59,0,0,0-3.5,4.76,25.18,25.18,0,0,0-4.31,7.87,3.3,3.3,0,0,0-.51,1.64,11.36,11.36,0,0,0-.66,4.32,2.19,2.19,0,0,0,0,1.19,3.12,3.12,0,0,1-2.84,2.69H100l-3.57-.06-.69-.32a4.54,4.54,0,0,1-1.26-1.59l-.19-1.2a9.57,9.57,0,0,0-.28-3.33,1.31,1.31,0,0,0-.22-1,8.12,8.12,0,0,0-.89-3c0-.23,0-.48-.26-.62a9.13,9.13,0,0,0-1.38-2.84c0-.19-.07-.41-.29-.5a9,9,0,0,0-1.36-2.18,1.29,1.29,0,0,0-.49-.7,9.93,9.93,0,0,0-1.52-2.11l-.38-.51-1.57-2.12-.56-.75-1.53-2.11a2.46,2.46,0,0,0-.7-1l-1.19-1.86a1.17,1.17,0,0,0-.43-.73L80,114.85a2,2,0,0,0-.46-1l-.79-2.1-.42-1.19-.59-2.68-.18-1.14-.24-3.33v-1.2l.25-3.81L77.79,97l1-4.53a5.33,5.33,0,0,0,.54-1.65,36.94,36.94,0,0,1,4.33-7.86,40.47,40.47,0,0,1,4.66-4.69,35.66,35.66,0,0,1,7.88-4.41l1.92-.65,4.52-1a2.91,2.91,0,0,0,1.43-.19l3.81-.26h1.19l3.34.2,1.15.14,2.87.49,1.23.3,2.62.74a1.72,1.72,0,0,0,.93.33l2.14.9a1.82,1.82,0,0,0,1,.48l2.11,1.2ZM85.25,93.63a3.4,3.4,0,0,0-.48,1.67c-.47,1.2-.86,2.39.46,3.35a2.06,2.06,0,0,0,3.32-1.17c.2-.71.33-1.45.49-2.18a17.81,17.81,0,0,1,11.7-11.76c.76-.19,1.52-.36,2.28-.58,1.7-.5,2.17-2,1.09-3.46-.93-1.1-2-.71-3.13-.37A6.28,6.28,0,0,0,99,79.7,20.83,20.83,0,0,0,85.25,93.63Z"/><path class="cls-2" d="M100.51,164.91a3.2,3.2,0,0,1-.2-.78c0-1.4-.78-1.66-2-1.36h-1.2a4.5,4.5,0,0,1-2.08-1l-.47-.71c-.56-2.71.52-4,3.28-4l.94-.05h15.5c1.54,0,3.09.05,4.63,0a4.94,4.94,0,0,1,2.75.51l.7.76a3.43,3.43,0,0,1,.14,2.82,4.39,4.39,0,0,1-1.29,1.32,7.73,7.73,0,0,1-3.17.27c-.66,0-1,.14-1.1.85a5.57,5.57,0,0,1-5.79,4.71c-1.55,0-3.09-.06-4.63,0a6.16,6.16,0,0,1-5.64-2.63Z"/><path class="cls-2" d="M101,154.21H97.4l-.93-.09a4.21,4.21,0,0,1-1.73-1.37l-.37-1c.16-2.44,1-3.18,3.75-3.35h20a12.43,12.43,0,0,1,3.1.28l.71.49a4.41,4.41,0,0,1,.93,2.12l-.51,1.64a3.58,3.58,0,0,1-3.06,1.23c-.94-.06-1.89,0-2.83,0H101Z"/><path class="cls-2" d="M83.09,54.57l1.38,2.26.19.36L86,59.54a2.54,2.54,0,0,0,.63,1,8.76,8.76,0,0,0,1.19,2.08,1.31,1.31,0,0,0,.41.73l1.47,2.52.17.34,1.31,2.35v1.19a3.14,3.14,0,0,1-1.42,1.48l-1.44,0c-.77-.33-1.12-1.06-1.59-1.68,0-.2-.07-.41-.3-.5a9.47,9.47,0,0,0-1.22-2.14,1.15,1.15,0,0,0-.43-.72,12.19,12.19,0,0,0-1.37-2.41,2.06,2.06,0,0,0-.56-.94,11.76,11.76,0,0,0-1.37-2.38c0-.18,0-.39-.28-.47A9.47,9.47,0,0,0,80,57.87a1.11,1.11,0,0,0-.43-.72c-.59-2.42.64-3.62,3-3Z"/><path class="cls-2" d="M156.29,132.22c-1.09.28-1.94-.36-2.84-.77-.06-.17-.21-.19-.36-.19a12.05,12.05,0,0,0-2.51-1.45,1.13,1.13,0,0,0-.73-.43,8.76,8.76,0,0,0-2.1-1.21l-1-.62-2.36-1.32a1.13,1.13,0,0,0-.73-.43,9,9,0,0,0-2.13-1.23l-.69-.51a2.37,2.37,0,0,1-.11-2.82l.58-.53c1.12-.62,2.07-.07,3,.42a1.24,1.24,0,0,0,.73.42,9.67,9.67,0,0,0,2.14,1.23,1.16,1.16,0,0,0,.73.42,8.56,8.56,0,0,0,2.09,1.21l.95.58,2.42,1.36a1.16,1.16,0,0,0,.73.43,9.29,9.29,0,0,0,2.14,1.23l.71.46a2.63,2.63,0,0,1,.67,2.36A3.56,3.56,0,0,1,156.29,132.22Z"/><path class="cls-2" d="M65.51,80.69a11.61,11.61,0,0,0-2.39-1.38l-.95-.58-1.89-1.1-.73-1c-.12-2.18.84-3,3-2.65l.74.4a8.35,8.35,0,0,0,2.09,1.2l1,.63,2.35,1.33a1.21,1.21,0,0,0,.73.42,9.29,9.29,0,0,0,2.14,1.23,1.16,1.16,0,0,0,.73.42,8.62,8.62,0,0,0,2.1,1.21l1,.62a3.33,3.33,0,0,1,1.41,1.51V84.1a3.09,3.09,0,0,1-1.43,1.47l-1.43,0-1.85-1-1-.62L68.82,82.6a1.14,1.14,0,0,0-.73-.42A9.33,9.33,0,0,0,66,80.94C65.88,80.73,65.69,80.72,65.51,80.69Z"/><path class="cls-2" d="M137.9,56.44l-4.55,8.11-1.51,2.58c-.52.87-1.08,1.71-1.54,2.61a2.68,2.68,0,0,1-2.38,1.64L127,71a2.53,2.53,0,0,1-1-2c.06-.72.61-1.23.78-1.9,1.74-2.71,3.28-5.55,4.87-8.35l1.6-2.84c.56-.71.87-1.66,1.84-2l1.44,0a3,3,0,0,1,1.37,1.58Z"/><path class="cls-2" d="M157.57,75.08a2.24,2.24,0,0,1-1.32,2.9l-4.53,2.68a14.59,14.59,0,0,0-2.59,1.51c-1.27.71-2.53,1.43-3.81,2.12-1,.53-1.88,1.32-3.09,1.38l-1-.34a2.68,2.68,0,0,1-1-1.71,2.43,2.43,0,0,1,1.48-2.19c.59-.3,1.13-.68,1.69-1l8.33-4.85L154.58,74a2.45,2.45,0,0,1,2.53.38Z"/><path class="cls-2" d="M164.62,101.76c.8,2.12,0,3.36-2.28,3.39-.51,0-1,0-1.52.07a3.18,3.18,0,0,0-1.44,0,16.84,16.84,0,0,0-3.33,0,3.18,3.18,0,0,0-1.44,0,16.74,16.74,0,0,0-3.32,0,3.23,3.23,0,0,0-1.45,0l-3.08-.17-.69-.5a2.41,2.41,0,0,1-.15-2.79l.62-.57c1.22-.54,2.54-.11,3.79-.36a2.06,2.06,0,0,0,1.18,0,17.84,17.84,0,0,0,3.58,0,2.1,2.1,0,0,0,1.19,0,17.85,17.85,0,0,0,3.58,0,2.1,2.1,0,0,0,1.19,0,23.17,23.17,0,0,1,2.77.24Z"/><path class="cls-2" d="M76.94,122.24a2.51,2.51,0,0,1-1.53,2.42c-.89.47-1.73,1-2.59,1.57L70,127.79l-7.92,4.49-1.19-.06a3.4,3.4,0,0,1-1.39-1.42l0-1.17c.38-1.06,1.37-1.46,2.2-2l2.57-1.51q4.39-2.34,8.62-5l1.87-.77c.81.27,1.65.49,2,1.37Z"/><path class="cls-2" d="M68.79,105.2a19.24,19.24,0,0,0-3.56,0,2.26,2.26,0,0,0-1.21,0,19.24,19.24,0,0,0-3.56,0,2.26,2.26,0,0,0-1.21,0,19.25,19.25,0,0,0-3.56,0,2.22,2.22,0,0,0-1.2,0,3,3,0,0,1-1.87-.85l-.38-.95c.14-1.87.6-2.31,2.73-2.59a2.1,2.1,0,0,0,1.19,0,17.85,17.85,0,0,0,3.58,0,2.09,2.09,0,0,0,1.19,0,17.85,17.85,0,0,0,3.58,0,2.06,2.06,0,0,0,1.18,0,17.84,17.84,0,0,0,3.58,0l1,.16a2.87,2.87,0,0,1,1.43,1.48v1.2a3.26,3.26,0,0,1-1.43,1.46Z"/><path class="cls-2" d="M110.74,64.55A3.12,3.12,0,0,1,109.32,66h-1.43a3,3,0,0,1-1.42-1.48l0-1V49.29a2.51,2.51,0,0,1,1-2.27,2.18,2.18,0,0,1,3.35,2v6c0,1.19,0,2.38,0,3.57v4.77Z"/></g></g></svg>