<svg xmlns="http://www.w3.org/2000/svg" viewBox="0 0 217 217"><defs><style>.cls-1{fill:#c6f52c;}.cls-2{fill:#3e3e3e;}</style></defs><title>Plakat</title><g id="Ebene_2" data-name="Ebene 2"><g id="Plakat"><circle class="cls-1" cx="108.5" cy="108.5" r="108.5"/><path class="cls-2" d="M55,54V70H71V54ZM67,66H59V58h8Z"/><path class="cls-2" d="M148,54V70h16V54Zm12,12h-8V58h8Z"/><rect class="cls-2" x="61" y="24" width="4" height="30"/><rect class="cls-2" x="154" y="24" width="4" height="30"/><polygon class="cls-2" points="176 62 176 184 41 184 41 62 59 62 59 66 67 66 67 62 152 62 152 66 160 66 160 62 176 62"/><path class="cls-1" d="M108.55,140.56h14.79c3.26,0,5.68.77,6.95,2.25s.86,2.87-1.25,4.1a11.41,11.41,0,0,1-5.73,1.26H93.73c-5.62,0-8.83-2.62-7.28-5.09.93-1.48,3.77-2.51,7.17-2.52C98.6,140.54,103.57,140.55,108.55,140.56Z"/><path class="cls-1" d="M108.5,163.46c-2.47,0-4.94,0-7.41,0A3.82,3.82,0,0,1,98,157.18a3.67,3.67,0,0,1,3-1.32c5.06,0,10.12,0,15.18,0a3.8,3.8,0,0,1,2.9,6.31,3.69,3.69,0,0,1-3,1.29C113.53,163.45,111,163.46,108.5,163.46Z"/><polygon class="cls-1" points="109 86 137 86 123 110.25 109 134.5 95 110.25 81 86 109 86"/></g></g></svg>