<svg xmlns="http://www.w3.org/2000/svg" viewBox="0 0 217 217"><defs><style>.cls-1{fill:#c6f52c;}.cls-2{fill:#3e3e3e;}</style></defs><title>TV</title><g id="Ebene_2" data-name="Ebene 2"><g id="TV"><circle class="cls-1" cx="108.5" cy="108.5" r="108.5"/><path class="cls-2" d="M118,156.69v9.75h11v4.87H88v-4.87H99v-9.75H38v-86h65.05a3.78,3.78,0,0,1,.33-.63L85.74,49.67a2,2,0,1,1,2.26-2v0L105.53,68a6.06,6.06,0,0,1,3-.78,5.9,5.9,0,0,1,2.62.61L128.5,47.71v0a2,2,0,1,1,2.26,2L113.4,69.74a5,5,0,0,1,.55,1H179v86Z"/></g></g></svg>