<svg xmlns="http://www.w3.org/2000/svg" viewBox="0 0 217 217"><defs><style>.cls-1{fill:#c6f52c;}.cls-2{fill:#3e3e3e;}</style></defs><title>Visitenkarte</title><g id="Ebene_2" data-name="Ebene 2"><g id="Visienkarte"><circle class="cls-1" cx="108.5" cy="108.5" r="108.5"/><path class="cls-2" d="M108.71,167Q80,167,51.2,167c-7,0-13-2.27-17.71-7.54A21.18,21.18,0,0,1,28.18,148a29.21,29.21,0,0,1-.24-4.08q0-36,0-71.92c0-7,2.4-13,7.74-17.6A22.54,22.54,0,0,1,51,49H167a27.36,27.36,0,0,1,6.16.68,22.2,22.2,0,0,1,16.9,21.62c0,24.44.06,48.89,0,73.33,0,9.52-4.66,16.36-13.2,20.45a22.6,22.6,0,0,1-9.9,1.93Q137.82,167,108.71,167Zm.43-103.33H51.49a9,9,0,0,0-6.2,1.85c-2.17,1.85-2.71,4.27-2.71,7q0,35.48,0,70.94a14.61,14.61,0,0,0,.13,2.39,7.49,7.49,0,0,0,2.19,4.31c1.83,1.81,4.11,2.18,6.5,2.18q23,0,46.06,0h69c2.24,0,4.4-.28,6.22-1.8,2.13-1.79,2.76-4.15,2.75-6.81q0-35.67,0-71.36a13.5,13.5,0,0,0-.11-2.11,7.59,7.59,0,0,0-2.16-4.34c-1.85-1.84-4.17-2.22-6.62-2.22Z"/><path class="cls-2" d="M92,92.87A15.55,15.55,0,1,1,60.91,93,15.55,15.55,0,0,1,92,92.87Z"/><path class="cls-2" d="M131.57,86h14.54a7,7,0,0,1,6.83,4.32,7.05,7.05,0,0,1-1.23,7.9,7.16,7.16,0,0,1-5.64,2.43H117a7.36,7.36,0,0,1-7.15-9.79,7.27,7.27,0,0,1,7-4.86C121.78,85.93,126.67,86,131.57,86Z"/><path class="cls-2" d="M131.48,130.06c-4.75,0-9.5,0-14.26,0-3.24,0-5.71-1.29-7.07-4.19a7.32,7.32,0,0,1,6.79-10.46q14.61,0,29.22,0a7,7,0,0,1,6.75,4.26,7,7,0,0,1-1.16,7.9,7.15,7.15,0,0,1-5.73,2.49C141.17,130.05,136.33,130.06,131.48,130.06Z"/></g></g></svg>