<svg xmlns="http://www.w3.org/2000/svg" viewBox="0 0 217 217"><defs><style>.cls-1{fill:#c6f52c;}.cls-2{fill:#3e3e3e;}</style></defs><title>Webseite</title><g id="Ebene_2" data-name="Ebene 2"><g id="Webseite"><circle class="cls-1" cx="108.5" cy="108.5" r="108.5"/><path class="cls-2" d="M180,165.9H39.14c-.27,0-.33-.05-.33-.32q0-57.2,0-114.39H179.54c.46,0,.46,0,.46.46Zm-70.63-8.83h61.42c.27,0,.4,0,.4-.36q0-43.77,0-87.53c0-.29-.06-.36-.36-.36q-61.23,0-122.47,0c-.3,0-.36.07-.36.36q-.16,43.73-.36,87.46c0,.35.08.43.44.43Z"/><path class="cls-2" d="M137.56,94h16.18c3.57,0,6.21,1,7.61,3s.94,3.78-1.37,5.4a10.72,10.72,0,0,1-6.27,1.66H121.34c-6.15,0-9.66-3.44-8-6.69,1-2,4.13-3.31,7.85-3.32C126.66,94,132.11,94,137.56,94Z"/><path class="cls-2" d="M137.48,117c-5.26,0-10.52,0-15.79,0-3.59,0-6.32-.88-7.83-2.86s-1-3.74,1.18-5.38a10.47,10.47,0,0,1,6.34-1.73q16.17,0,32.35,0c3.44,0,6.08,1,7.47,2.89s1,3.76-1.28,5.38a10.69,10.69,0,0,1-6.34,1.69C148.21,117,142.84,117,137.48,117Z"/><path class="cls-2" d="M128.49,130c-3.33,0-6.65,0-10,0a5,5,0,0,1-5-2.86,4.71,4.71,0,0,1,.75-5.38,5,5,0,0,1,4-1.73q10.23,0,20.46,0a4.87,4.87,0,0,1,4.72,2.89,4.66,4.66,0,0,1-.81,5.38,5,5,0,0,1-4,1.69Z"/><polygon class="cls-2" points="80 132 51.71 132 65.86 107.5 80 83 94.14 107.5 108.29 132 80 132"/></g></g></svg>