<?xml version="1.0" encoding="utf-8"?>
<!-- Generator: Adobe Illustrator 22.1.0, SVG Export Plug-In . SVG Version: 6.00 Build 0)  -->
<svg version="1.1" id="Ebene_3" xmlns="http://www.w3.org/2000/svg" xmlns:xlink="http://www.w3.org/1999/xlink" x="0px" y="0px"
	 viewBox="0 0 200 200" style="enable-background:new 0 0 200 200;" xml:space="preserve">
<style type="text/css">
	.st0{fill:#FFFFFF;}
	.st1{fill:#28DEEA;}
</style>
<path class="st0" d="M84.6,135.3c-11.8,21.8-44.9,26.2-44.9,26.2l28.7-28.6c3.1,1.3,6.7,0.6,9.1-1.8c0.5-0.5,0.9-1.1,1.3-1.7
	L84.6,135.3z"/>
<path class="st0" d="M64,128.5l-28.7,28.7c0,0,4.4-33.1,26.2-44.9l5.9,5.9c-0.6,0.3-1.2,0.8-1.7,1.3C63.3,121.7,62.6,125.4,64,128.5
	z"/>
<path class="st0" d="M101.6,120.1l-13.2,13.1l-8.6-8.6c0-0.3-0.1-0.7-0.2-1c-0.1-0.6-0.3-1.2-0.5-1.7c-0.4-1-1-1.8-1.8-2.6
	c-0.7-0.7-1.5-1.3-2.4-1.7c-0.1,0-0.1-0.1-0.2-0.1c-0.5-0.3-1.1-0.4-1.7-0.5c-0.3-0.1-0.7-0.2-1-0.2l-8.6-8.6l13.2-13.2l10.2,10.2
	L101.6,120.1z"/>
<path class="st1" d="M172,49.7l-70.5,70.5l-14.8-14.8L76.7,95.2l70.5-70.5c3.3-3.2,9.6-2.3,15.5,1.7c1.5,1,2.9,2.2,4.2,3.4
	c3.1,3,5.4,6.8,6.6,10.9C174.5,44.4,174,47.6,172,49.7z"/>
<path class="st0" d="M128.2,177.4c-2.2,0-4.3-0.3-6.4-0.7c-2.1-0.5-4.1-1.3-6-2.4c-1.8-1.1-3.6-2.3-5.4-3.4c-1.8-1.1-3.6-2-5.5-2.9
	c-3.9-1.5-8-2.5-12.1-3c-4.2-0.6-8.4-0.8-12.6-0.8c-4.2,0-8.5,0.2-12.7,0.4s-8.5,0.7-12.8,0.9s-8.5,0.6-12.8,0.5
	c-1.1,0-2.2-0.2-3.3-0.3c-0.6-0.1-1.1-0.2-1.6-0.3c-0.6-0.2-1.1-0.4-1.6-0.8c-0.5-0.4-0.8-1-0.7-1.7c0.1-0.6,0.3-1.1,0.7-1.6
	c0.7-0.8,1.3-1.7,2.2-2.4c-0.7,0.8-1.3,1.7-1.8,2.6c-0.3,0.4-0.4,0.9-0.4,1.4c0,0.4,0.2,0.8,0.5,1.1c0.4,0.3,0.8,0.4,1.3,0.5
	c0.5,0.1,1,0.2,1.5,0.2c1,0.1,2.1,0.1,3.1,0c4.2-0.2,8.4-0.8,12.7-1.3c8.5-1.2,17-1.8,25.6-1.9c4.4,0,8.6,0.3,12.9,1
	c4.3,0.6,8.6,1.8,12.5,3.5c2,0.9,3.9,2,5.6,3.3s3.4,2.6,5.1,3.8c1.7,1.2,3.6,2.2,5.5,2.9C124,176.7,126.1,177.1,128.2,177.4z"/>
</svg>
