<?xml version="1.0" encoding="utf-8"?>
<!-- Generator: Adobe Illustrator 22.1.0, SVG Export Plug-In . SVG Version: 6.00 Build 0)  -->
<svg version="1.1" id="Ebene_1" xmlns="http://www.w3.org/2000/svg" xmlns:xlink="http://www.w3.org/1999/xlink" x="0px" y="0px"
	 viewBox="0 0 200 200" style="enable-background:new 0 0 200 200;" xml:space="preserve">
<style type="text/css">
	.st0{fill:#FFFFFF;}
	.st1{fill:#28DEEA;}
</style>
<title>Illustration_Hover</title>
<path class="st0" d="M80.8,142c-14.1,26-53.5,31.2-53.5,31.2l34.2-34.1c3.7,1.6,8,0.7,10.8-2.1c0.6-0.6,1.1-1.3,1.5-2L80.8,142z"/>
<path class="st0" d="M56.2,133.9L22,168.1c0,0,5.3-39.4,31.2-53.5l7,7c-0.7,0.4-1.4,0.9-2,1.5C55.4,125.9,54.6,130.2,56.2,133.9z"/>
<path class="st0" d="M101,124l-15.7,15.6l-10.2-10.2c0-0.4-0.1-0.8-0.2-1.2c-0.1-0.7-0.3-1.4-0.6-2c-0.5-1.2-1.2-2.2-2.1-3.1
	c-0.8-0.8-1.8-1.5-2.9-2c-0.1,0-0.1-0.1-0.2-0.1c-0.6-0.3-1.3-0.5-2-0.6c-0.4-0.1-0.8-0.2-1.2-0.2L55.7,110l15.7-15.7l12.1,12.1
	L101,124z"/>
<path class="st1" d="M185,40l-84,84l-17.6-17.6L71.4,94.3l84-84c3.9-3.8,11.4-2.8,18.5,2c1.8,1.2,3.5,2.6,5,4.1
	c3.7,3.6,6.4,8.1,7.9,13C187.9,33.7,187.4,37.5,185,40z"/>
<path class="st0" d="M132.8,192.2c-2.6,0-5.1-0.3-7.6-0.8c-2.5-0.6-4.9-1.6-7.2-2.9c-2.2-1.3-4.3-2.8-6.4-4.1
	c-2.1-1.3-4.3-2.4-6.6-3.4c-4.6-1.8-9.5-3-14.4-3.6c-5-0.7-10-1-15-0.9c-5,0-10.1,0.2-15.1,0.5s-10.1,0.8-15.2,1.1
	s-10.1,0.7-15.3,0.6c-1.3,0-2.6-0.2-3.9-0.4c-0.7-0.1-1.3-0.2-1.9-0.4c-0.7-0.2-1.3-0.5-1.9-1c-0.6-0.5-0.9-1.2-0.8-2
	c0.1-0.7,0.4-1.3,0.8-1.9c0.8-1,1.6-2,2.6-2.9c-0.8,0.9-1.6,2-2.2,3.1c-0.3,0.5-0.5,1.1-0.5,1.7c0,0.5,0.2,1,0.6,1.3
	c0.5,0.3,1,0.5,1.6,0.6c0.6,0.1,1.2,0.2,1.8,0.2c1.2,0.1,2.5,0.1,3.7,0c5-0.2,10-0.9,15.1-1.5c10.1-1.4,20.3-2.1,30.5-2.3
	c5.2,0,10.3,0.4,15.4,1.2c5.1,0.7,10.2,2.1,14.9,4.2c2.4,1.1,4.6,2.4,6.7,3.9c2.1,1.5,4.1,3.1,6.1,4.5c2,1.4,4.3,2.6,6.6,3.4
	C127.8,191.4,130.3,191.9,132.8,192.2z"/>
</svg>
