<?xml version="1.0" encoding="utf-8"?>
<!-- Generator: Adobe Illustrator 22.1.0, SVG Export Plug-In . SVG Version: 6.00 Build 0)  -->
<svg version="1.1" id="Ebene_1" xmlns="http://www.w3.org/2000/svg" xmlns:xlink="http://www.w3.org/1999/xlink" x="0px" y="0px"
	 viewBox="0 0 200 200" style="enable-background:new 0 0 200 200;" xml:space="preserve">
<style type="text/css">
	.st0{fill:#001E2A;}
	.st1{fill:none;stroke:#FFFFFF;stroke-width:2;stroke-miterlimit:10;enable-background:new    ;}
	.st2{fill:#FFFFFF;stroke:#FFFFFF;stroke-miterlimit:10;enable-background:new    ;}
	.st3{fill:#08232E;}
	.st4{fill:#FFFFFF;}
</style>
<title>Musik_Hover</title>
<circle class="st0" cx="99.5" cy="99.5" r="73.5"/>
<circle class="st1" cx="99.5" cy="99.5" r="66"/>
<circle class="st1" cx="99.5" cy="99.5" r="56"/>
<circle class="st1" cx="99.5" cy="99.5" r="46"/>
<circle class="st1" cx="99.5" cy="99.5" r="36"/>
<circle class="st2" cx="99.5" cy="99.5" r="26"/>
<circle class="st0" cx="99.5" cy="99.5" r="6.5"/>
<g>
	<path class="st3" d="M170.7,175.4c-1.5,0-3-0.4-4.3-1.1l-5.2-3c-2-1.1-3.4-3-4-5.2c-0.6-2.2-0.3-4.5,0.9-6.4
		c1.5-2.6,4.3-4.2,7.4-4.2c1.5,0,3,0.4,4.3,1.1l1.4,0.8c8.8-10,27-34.4,13.5-53.3c-8.2-11.5-20-19.8-25.3-23.1l-0.9,2.2l-16.7-6.8
		l4.1-10.2l16.7,6.8l-1.3,3.2c5.5,3.4,18.3,12.1,27.4,24.9c15,21-1.6,45.7-13.2,58.8c3.6,2.5,4.6,7.3,2.4,11.2
		C176.5,173.8,173.7,175.4,170.7,175.4L170.7,175.4z"/>
	<path class="st4" d="M146.3,67l15.8,6.4l-1.3,3.2c5.4,3.3,18.4,12,27.6,25c15.2,21.3-3,46.8-13.5,58.6c3.7,2.3,4.9,7.1,2.7,10.8
		c-1.5,2.6-4.2,4-6.9,4c-1.4,0-2.7-0.3-4-1.1l-5.2-3c-3.8-2.2-5.1-7.1-2.9-10.9c1.5-2.6,4.2-4,6.9-4c1.4,0,2.7,0.3,4,1.1l1.8,1
		c9.7-10.9,27.5-35.1,13.8-54.2c-8.4-11.8-20.5-20.2-25.9-23.5l-0.9,2.3l-15.8-6.4L146.3,67 M145.7,65.7l-0.4,0.9l-3.8,9.3l-0.4,0.9
		l0.9,0.4l15.8,6.4l0.9,0.4l0.4-0.9l0.5-1.2c5.4,3.5,16.7,11.5,24.6,22.6c5.7,8,6.3,17.9,1.7,29.3c-3.7,9.2-10.1,17.6-14.9,23.1
		l-1.1-0.6c-1.4-0.8-2.9-1.2-4.5-1.2c-3.2,0-6.2,1.7-7.8,4.5c-2.5,4.3-1,9.8,3.3,12.3l5.2,3c1.4,0.8,2.9,1.2,4.5,1.2
		c3.2,0,6.2-1.7,7.8-4.5c2.3-3.9,1.3-8.7-2.1-11.5c5.3-6,12-15.1,15.8-25.2c4.8-12.8,3.8-24.2-3-33.8c-9-12.6-21.5-21.3-27.2-24.8
		l1-2.4l0.4-0.9l-0.9-0.4L146.7,66L145.7,65.7L145.7,65.7z"/>
</g>
</svg>
