<?xml version="1.0" encoding="utf-8"?>
<!-- Generator: Adobe Illustrator 22.1.0, SVG Export Plug-In . SVG Version: 6.00 Build 0)  -->
<svg version="1.1" id="Ebene_1" xmlns="http://www.w3.org/2000/svg" xmlns:xlink="http://www.w3.org/1999/xlink" x="0px" y="0px"
	 viewBox="0 0 200 200" style="enable-background:new 0 0 200 200;" xml:space="preserve">
<style type="text/css">
	.st0{fill:#26DDE9;}
	.st1{opacity:0.36;fill:#FFFFFF;stroke:#25C8CC;stroke-width:2;stroke-miterlimit:10;enable-background:new    ;}
	.st2{opacity:0.56;fill:#FFFFFF;enable-background:new    ;}
	.st3{fill:#001E2A;}
	.st4{fill:#196572;}
</style>
<title>Musik</title>
<circle class="st0" cx="99.5" cy="99.5" r="73.5"/>
<circle class="st1" cx="99.5" cy="99.5" r="66"/>
<circle class="st1" cx="99.5" cy="99.5" r="56"/>
<circle class="st1" cx="99.5" cy="99.5" r="46"/>
<circle class="st1" cx="99.5" cy="99.5" r="36"/>
<circle class="st2" cx="99.5" cy="99.5" r="26"/>
<circle class="st3" cx="99.5" cy="99.5" r="6.5"/>
<g>
	<rect x="147.3" y="66.3" transform="matrix(0.3756 -0.9268 0.9268 0.3756 25.7857 187.8303)" class="st4" width="10" height="17"/>
</g>
<g>
	<path class="st4" d="M167.1,167.3c-0.5,0-1.1-0.2-1.5-0.7c-0.7-0.8-0.7-2.1,0.1-2.8c0.4-0.3,37.4-34.7,19.4-60
		c-11.1-15.5-28.5-25.1-28.7-25.2c-1-0.5-1.3-1.7-0.8-2.7c0.5-1,1.7-1.3,2.7-0.8c0.7,0.4,18.4,10.1,30.1,26.4
		c20.1,28.2-18.3,63.7-19.9,65.2C168.1,167.1,167.6,167.3,167.1,167.3z"/>
</g>
<g>
	<path class="st4" d="M169.5,157l5.2,3c3.8,2.2,5.1,7.1,2.9,10.9l0,0c-2.2,3.8-7.1,5.1-10.9,2.9l-5.2-3c-3.8-2.2-5.1-7.1-2.9-10.9
		l0,0C160.8,156.1,165.7,154.8,169.5,157z"/>
</g>
</svg>
