<?xml version="1.0" encoding="utf-8"?>
<!-- Generator: Adobe Illustrator 22.1.0, SVG Export Plug-In . SVG Version: 6.00 Build 0)  -->
<svg version="1.1" id="Capa_1" xmlns="http://www.w3.org/2000/svg" xmlns:xlink="http://www.w3.org/1999/xlink" x="0px" y="0px"
	 viewBox="0 0 512 512" style="enable-background:new 0 0 512 512;" xml:space="preserve">
<style type="text/css">
	.st0{fill:#001E2A;}
	.st1{fill:#FFFFFF;}
</style>
<circle class="st0" cx="256" cy="256" r="256"/>
<path class="st1" d="M363.9,176.4c0,0-20.9-22.1-68.4-25.4v7c0,0,26.1-1.5,58.2,30.2c-24.3-17.4-59-28.5-97.6-28.5
	c-38.6,0-73.3,10.9-97.6,28.5c32.3-31.7,58.2-30.2,58.2-30.2v-7c-47.5,3.2-68.4,25.4-68.4,25.4C112.1,223,110.2,325,110.2,325
	c34.1,41.1,76.9,35.8,76.9,35.8l15.7-22.7c-20.3-5.5-34.8-18.1-43.5-27.9c24.3,17.2,58.6,27.9,96.8,27.9s72.5-10.7,96.8-27.9
	c-8.7,9.8-23.2,22.4-43.5,27.9l15.7,22.7c0,0,42.8,5.2,76.9-35.8C402.1,325,400.1,223,363.9,176.4z M210.7,282.3
	c-13.7,0-24.7-11.8-24.7-26.3c0-14.5,11.1-26.3,24.7-26.3c13.6,0,24.7,11.8,24.7,26.3C235.5,270.5,224.4,282.3,210.7,282.3z
	 M301.6,282.3c-13.7,0-24.7-11.8-24.7-26.3c0-14.5,11.1-26.3,24.7-26.3c13.6,0,24.7,11.8,24.7,26.3
	C326.4,270.5,315.3,282.3,301.6,282.3z"/>
</svg>
