<?xml version="1.0" encoding="utf-8"?>
<!-- Generator: Adobe Illustrator 22.1.0, SVG Export Plug-In . SVG Version: 6.00 Build 0)  -->
<svg version="1.1" id="Layer_1" xmlns="http://www.w3.org/2000/svg" xmlns:xlink="http://www.w3.org/1999/xlink" x="0px" y="0px"
	 viewBox="0 0 512 512" style="enable-background:new 0 0 512 512;" xml:space="preserve">
<style type="text/css">
	.st0{fill:#001E2A;}
	.st1{fill:#FFFFFF;}
</style>
<g>
	<g>
		<path class="st0" d="M256,0c141.4,0,256,114.6,256,256S397.4,512,256,512S0,397.4,0,256S114.6,0,256,0z"/>
		<path class="st1" d="M334.5,128h-157c-27.3,0-49.5,22.2-49.5,49.5v157.1c0,27.3,22.2,49.5,49.5,49.5h157.1
			c27.3,0,49.5-22.2,49.5-49.5V177.5C384,150.2,361.8,128,334.5,128z M350.1,156.6l5.6,0v42.5l-42.8,0.1l-0.1-42.5
			C312.8,156.8,350.1,156.6,350.1,156.6z M256,213.2c35.5,0,42.8,33.3,42.8,42.8c0,23.6-19.2,42.8-42.8,42.8
			c-23.6,0-42.8-19.2-42.8-42.8C213.2,246.5,220.5,213.2,256,213.2z M355.9,331.4c0,13.5-11,24.5-24.5,24.5H180.1
			c-13.5,0-24.5-11-24.5-24.5V227.5h35.5c-3.3,8.1-5.2,19.2-5.2,28.5c0,38.6,31.4,70,70,70s70-31.4,70-70c0-9.3-1.9-20.4-5.1-28.5
			h35.1L355.9,331.4L355.9,331.4z"/>
	</g>
</g>
</svg>
