<?xml version="1.0" encoding="utf-8"?>
<!-- Generator: Adobe Illustrator 22.1.0, SVG Export Plug-In . SVG Version: 6.00 Build 0)  -->
<svg version="1.1" id="Layer_1" xmlns="http://www.w3.org/2000/svg" xmlns:xlink="http://www.w3.org/1999/xlink" x="0px" y="0px"
	 viewBox="0 0 512 512" style="enable-background:new 0 0 512 512;" xml:space="preserve">
<style type="text/css">
	.st0{fill:#001E2A;}
	.st1{fill:#FFFFFF;}
</style>
<g>
	<circle class="st0" cx="256" cy="256" r="256"/>
	<g>
		<path class="st1" d="M388.9,169.4c-7.9-8.7-19.3-14.2-32-14.2H155c-23.8,0-43,19.3-43,43.1v115.5c0,11.3,4.4,21.6,11.5,29.3
			c6.4,6.9,15,11.7,24.7,13.2c2.2,0.4,4.5,0.5,6.8,0.5H357c23.8,0,43-19.3,43-43.1V198.3C400,187.2,395.8,177.1,388.9,169.4z
			 M227.2,304.7V196.3l48.8,32.2l33.4,22L227.2,304.7z"/>
		<polygon class="st0" points="309.4,250.5 227.2,304.7 227.2,196.3 276,228.5 		"/>
	</g>
</g>
</svg>
