<svg id="Ebene_1" data-name="Ebene 1" xmlns="http://www.w3.org/2000/svg" xmlns:xlink="http://www.w3.org/1999/xlink" width="1024" height="1024" viewBox="0 0 1024 1024">
  <defs>
    <style>
      .Pfad {
        fill: #2f6fbc;
      opacity: 0.6;
      position: absolute;
      z-index: 3;
      }
      
     #HOVER:last-child:hover{
      opacity: 0;
      }
      
    </style>
  </defs>
  <title>Big</title>
     <path class="Pfad" d="M903.07,355.37c-7.66-3.45-15.2-7.16-22.83-10.79.5-.88.82-1.46,1.16-2,1.37-2.35,2.16-5.11,5.71-1.56,2,2,5.51,2.67,8.72,3-2.52-5.59-11-6.18-11.11-14.7,5.87,4.48,11,8.35,16.8,11.32,1.13.58,2.25,2.06,3.55,1.23,1.49-.95.17-2.47-.09-3.61-3.34-14.27-6.87-28.5-10.15-42.77-.7-3-1.65-3.63-4.64-2.5-3.63,1.37-7.1,4.17-11.18,3.23a31.73,31.73,0,0,0-15.73.32c-4.5,1.19-9.11,2-13.68,2.91s-6.88-1.89-5.34-6.29c.87-2.51,2-4.95,2.76-7.49s1.87-3,4.37-2.09c5.81,2.05,11.74,3.74,17.62,5.58,6,1.89,14.42-5.33,13.58-11.67-1.17-8.92-2.3-17.84-3.45-26.77-.8-6.27,0-13.45-2.86-18.58-3-5.36-10.81-6.57-16.15-10.2-3.1-2.11-5.64-2.24-8.2.61-2.95,3.27-4.88,2.34-5.9-1.57-2.12-8.16-7-15-10.35-22.84-3.23,3.67-3.77,6.74,0,10.07,2.41,2.13,4.31,4.84,6.94,7.87l-22.27,1c2.35-5.54,5.5-10.25,6.23-15.3,1.1-7.75,5.31-11.15,12.28-12.42,2.77-.5,3.23-1.86,2.66-4.58-2.3-10.92-4.31-21.9-6.44-32.85-1.42-7.35-2.87-14.7-4.53-23.22l-15.27,28.55-1.1-5.35c-1-5.24-3.1-6-7.29-2.83-3.44,2.64-6.86,5.3-11.44,8.84,1.7-5.66,3.17-9.73,4.11-13.91.7-3.16,1.91-4.15,4.92-2.66,2.14,1.06,3.67.12,5.14-1.63,4.84-5.72,9.76-11.39,14.8-16.94,1.71-1.89,2-3.38.72-5.7-4.13-7.8-8.21-15.65-11.85-23.68-1.79-4-2.83-3-5.24-.58-6.94,6.8-10.49,15.75-15.56,23.73-1.29,2-2.27,2.22-4.31,1s-2.37-2.3-.95-4.24,2.45-4.38,4-6.34c2.43-3.13,2.86-6.32,2-10.23-1.48-7.17-2.47-14.44-3.48-21.7-.6-4.34-.75-8.83-7.49-6,1-3.07,3.64-4.2,4.19-6.86,1.33-6.53,2.84-13,4.45-19.48.73-2.92-.46-3.47-3-3.31a59.29,59.29,0,0,1-10.48.21C767.45,38.48,760,41,753.92,50c-5.78,8.62-8.39,8.48-17.81,4.91-2.46-.94-3.93-.36-5.76,1.14-7.13,5.82-13.28,12.63-19.75,19.11-2.18,2.18-4.1,2.94-7.1,1.2L711.73,67c-4.9.47-10.33-2-11.61.31-3,5.43-7.83,4.35-11.85,5.37C663.48,79,640.3,89.4,617,99.57c-1.19.52-3,.72-3.09,2.22-.24,3.72-2.91,3.1-5.23,3.36-13.89,1.56-28.46.72-39.4,12.19-1.93,2-3.49,3.56-3.52,6.56s.39,6.53-2.16,10.06c-2.45-5.72-4.11-11.16-8.28-15.22-1.4-1.37-2.24-1.77-4.16-.86-16.64,8-31.63,18.4-45.9,29.94a7.07,7.07,0,0,0-2.25,2.61c-1.09,2.83-3.49,3.7-6,4.74-9.25,3.9-19.48,6.25-25.27,15.75-.44.73-1.36,2.09-2.28.92-2.18-2.81-3.47-.31-4.79.7-13.51,10.31-26.85,20.84-40.49,31-3.85,2.87-5.53,5.09-1.74,9.14,3.44,3.68-1.28,4.45-2.62,6.38-1.71,2.43-3.1,1.23-4.63-.41-6.24-6.71-12.69-13.23-18.78-20.08-2.31-2.61-3.55-2.19-5.7.07-7.15,7.46-14.53,14.69-21.77,22.06-1.58,1.6-3.09,3.23-5.56,2-11.15-5.33-20.51-2.09-28.93,5.91a2.27,2.27,0,0,1-.4.29c-2.93,1.5-4.05,3.77-4.27,7.17-.56,8.57-1.66,17.09-2.6,26.23-3.59-2.32-6.78-3.9-9.38-6.16-4.27-3.71-8.23-3.59-13-.9-5.06,2.85-10.54,4.94-15.84,7.35-7.17,3.27-14.35,6.52-22.9,10.41l15.63,16.1c-7.63.34-15.07,6.37-23.7,2.22-.84-.41-2.46.67-3.68,1.18-12,5-23.93,10-35.92,15-1.31.55-2.66,1.81-4.18.84-3.53-2.23-7.18-1.66-11-.26,0-5,0-9.48,0-14,0-4.74-4.55-5.26-7.1-7.56-2.18-2-3.56.78-5,1.85-9,6.92-17.82,14-26.76,21-1.91,1.49-3.22,3-3.34,5.69-.63,13.48-1.52,26.95-2.27,40.42-.4,7.38.17,8.15,6.88,11,2.48,1.06,4.91.2,7.37.13.95,0,2.06-.53,2.58.69s-.57,1.8-1.26,2.43c-1.71,1.58-3.46,3.13-5.25,4.62-2.65,2.19-3.21,4.68-.86,7.29,1.8,2,1.76,4.14,1.41,6.52-1.09,7.28-2.85,14.45-4.22,21.64-2.8,14.68-3.87,29.69-5.61,44.58-.32,2.74-.45,5.23-4.48,4.53a4.41,4.41,0,0,0-4.95,2.69c-2.92,8.05-7.87,15.33-7.8,24.49A170,170,0,0,1,141.09,512c-1.57,10.68,1.19,19.71,8.24,27.46,1.92,2.11,1.06,2.79-.34,4.15-6,5.88-12,11.81-18.58,18.23,2.62,1,4.35,1.47,6,2.25s4,.6,5.21,2.57c-8,1.06-10.1,2.84-11.06,10.77a85.43,85.43,0,0,1-4.29,17.38c-2.73,8-5.3,16.12-7.82,24.21-.35,1.12-1.68,3.34.54,3.45,3.66.19,6.12,1,6.51,5.11.29,3.16,2.38,5.79,1.05,9.52-2.78,7.82-4.61,16-7,23.94-.9,3-.39,7.24,1.51,7.54,4.7.75,2.44,3.11,2.18,5.16-.3,2.31-.73,4.61-1,6.92a11,11,0,0,0,11.2,12.52H140c-1,2.67-2.13,5.1-4,5.55-3.73.89-4.55,3.88-5.36,6.51a25.46,25.46,0,0,1-3.77,6.9c-3.94,5.77-7.94,11.51-11.86,17.3-2.59,3.83-1.43,6.19,3.25,6.73,1,.11,2-.55,3.13.39-1.74,6-3.52,12.1-5.27,18.16,2.45,1,4-.1,5.67-.86,8.6-4,17.2-8,25.76-12.07,2.7-1.29,6.1-2.25,7.71-4.43,3.7-5,8.84-5.14,14.05-5.86,1.52-.21,3.79.13,4.14-2,.7-4.27,6.12-7.39,3.07-12.53-.43-.72.2-.89.55-1.06,3.57-1.69,6.52-4.6,10.71-5.07q12.4-1.38,24.79-3c9.07-1.21,18.12-2.58,27.19-3.86,1.46-.21,3.38-.14,3.59-1.88.18-1.46-1.79-1.69-2.85-2.36-3.73-2.34-7.52-4.6-11.5-7,4-2.83,7.42-5.3,12-5.93,17.86-2.44,35.56-4.85,50.93-16.08,7.5-5.49,16.73-8.66,25.3-12.62,9.66-4.47,19.57-8.42,29.14-13.06,4.51-2.18,6.72-2.21,6.77,3.51,0,1.39,1.17,2.74,1.58,4.17,2.81,9.85,9.2,18.18,10.12,29.06,1.88,22.21,10.5,42.91,16.55,64.18a11.7,11.7,0,0,0,6.68,7.65c3.26,1.33,3.67,3.28,3.95,6,.14,1.49.77,3,.65,4.43-.65,7.67,1.93,16.19-5.53,22.16a2.68,2.68,0,0,0-1.06,2.65c.74,4.22-.94,7.86-2.87,11.37a8,8,0,0,0-.3,7.59c3.47,8.1,4.94,16.46,3.48,25.32-.72,4.43-.83,9,2.69,12.71,4.63-6.83,5.77-6.91,10-1a5.71,5.71,0,0,1,.75,5.19c-.46,1.78-1,3.52-.53,5.4,2.3,9.55,4.43,19.14,6.89,28.65,1.47,5.7,6.8,8.85,11.76,7.43,7.22-2.07,8.52-1.19,9.57,6.52a57,57,0,0,0,.79,6.43c.77,3,0,7.11,2.58,8.87,3,2,1.81,3.67,1.05,5.76-3.47,9.54-7,19.06-10.37,28.63-.47,1.33-2.27,3.49.26,4.21,6.41,1.83,12,9.72,20.21,1.81,0,4,.33,7-.06,9.94-.93,6.77,1.86,11.76,6.62,16.22,3.34,3.12,6.19,3.29,9.16-.23,5.46-6.51,11.75-12.54,16.05-19.75,4.56-7.62,11.3-11.9,18.6-15.26,7.56-3.46,9.45-8.67,8.63-16.17-.25-2.38-.74-3.57-3.12-4.11-4.71-1.07-9.3-2.74-14-3.48-6-.93-10-3.92-12.26-9.44-.47-1.17-3.11-2.62.2-3.66,2-.64,4.14-2,4.88,1.57a59.77,59.77,0,0,0,1.79,5.71c.44,1.38,1,2.47,2.81,1.79,10.4-4,21.55-6.17,31.34-11.52,11.83-6.46,23.09-13.94,34.69-20.84,2.36-1.41,3.06-2.44,1-4.78-1.39-1.62-2.7-2.67-4.92-2.85-3.7-.31-7.37-1-11.46-1.5,9-14.26,19.21-26.9,25.49-43.1L565,852.12c5.3-7.1,10.08-13.42,14.76-19.81,2.32-3.17,1.67-5.74-1.22-8.57-2.25-2.21-4-2.83-6.91-1.72-2.31.89-4.67,2.11-8.12,1.84a39.33,39.33,0,0,0,3.32-2.57c4.71-4.61,11.49-6.42,16.08-10.71,27.13-25.39,53.75-51.34,80.73-76.9,3.36-3.19,4.84-6,2.25-10-2.13-3.36-.86-5.43,1.93-7.88q32.35-28.32,64.4-57c1-.91,2.69-1.43,2.78-4H713.33c6.61-7.1,5.77-14.86,6.67-22.16.23-1.9.56-3.58,2.13-4.84,4.06-3.29,8.64-6,11.28-11.23,1.77,3,3.26,5.59,4.81,8.15,1.87,3.07,3.42,3.29,5.63,0,6.28-9.43,12.94-18.59,19.28-28,4.81-7.14,11.88-13.31,10.78-23.52l7,7.52c3.38-7,6.74-13.46,9.66-20.14,1.49-3.4,2.91-4.61,5.83-1.58,2.56,2.66,4.77,2.38,7.59,0,6.29-5.44,14.53-9.43,18.9-16,4.17-6.29,4.44-15.16,6.41-22.89a23.89,23.89,0,0,1,1.16-4.34c1.6-3.35,0-5.26-2.64-7s-5.1-3.06-8.44-.59c-9.11,6.73-18.49,13.09-27.76,19.6l-.89-.91c5.06-13,10.16-26,15.12-39.09a5.08,5.08,0,0,1,3.53-3.13c5.8-2.06,11.57-4.18,17.38-6.19,1.61-.55,3.33-.88,3.66-2.89.56-3.41,3.12-4.85,5.81-6.29,2.2-1.17,4.92-2.1,6.24-4,1.54-2.17,2.09-1,3.1-.06,5.4,5.21,10.64,10.59,16.21,15.6,4.7,4.22,8.65,6,13.93,1.37a54.75,54.75,0,0,1,9.11-6.12c2.63-1.5,3.12-3.14,2.27-6.06-2.8-9.59-5.19-19.29-7.88-28.92-.82-2.92-.47-4.8,2.45-6.49,4.59-2.66,8.92-5.82,13.24-8.93,2.33-1.68,3.81-3.06,4.13-7.05.82-10.12.15-20.21.7-30.3.18-3.17-.48-5.84-5.12-5.37,6.34-6.43,7.32-14.7,10.71-21.83C906.72,358,905.94,356.66,903.07,355.37Z"/>  
</svg>
