<svg id="Ebene_1" data-name="Ebene 1" xmlns="http://www.w3.org/2000/svg" width="95.8" height="1080" viewBox="0 0 95.8 1080"><defs><style>.cls-1{fill:#001e2a;}</style></defs><title>DesignProfilLine</title><rect class="cls-1" width="54" height="1080"/><polygon class="cls-1" points="42.69 25.66 42.69 4.57 60.96 15.11 79.22 25.66 60.96 36.21 42.69 46.76 42.69 25.66"/><polygon class="cls-1" points="42.69 964.11 42.69 985.2 60.96 974.65 79.22 964.11 60.96 953.56 42.69 943.01 42.69 964.11"/><polygon class="cls-1" points="42.69 1015.43 42.69 994.33 60.96 1004.88 79.22 1015.43 60.96 1025.98 42.69 1036.53 42.69 1015.43"/><polygon class="cls-1" points="36.16 55.94 31.8 41.62 46.38 45 60.96 48.39 50.74 59.32 40.52 70.25 36.16 55.94"/><polygon class="cls-1" points="36.16 933.83 31.8 948.15 46.38 944.76 60.96 941.38 50.74 930.45 40.52 919.51 36.16 933.83"/><polygon class="cls-1" points="36.16 1045.7 31.8 1031.39 46.38 1034.77 60.96 1038.15 50.74 1049.09 40.52 1060.02 36.16 1045.7"/><polygon class="cls-1" points="35.77 76.8 34.95 61.25 48.83 68.31 62.71 75.38 49.65 83.87 36.59 92.36 35.77 76.8"/><polygon class="cls-1" points="35.77 912.97 34.95 928.52 48.83 921.45 62.71 914.39 49.65 905.9 36.59 897.41 35.77 912.97"/><polygon class="cls-1" points="62.71 1065.15 54 1070.81 49.65 1073.64 40.5 1079.58 39.86 1080 36.48 1080 35.77 1066.57 34.95 1051.02 38.3 1052.72 44.43 1055.84 48.83 1058.08 54 1060.71 62.71 1065.15"/><polygon class="cls-1" points="38.99 103.91 39 88.95 51.96 96.44 64.91 103.93 51.95 111.4 38.98 118.88 38.99 103.91"/><polygon class="cls-1" points="38.99 885.85 39 900.82 51.96 893.33 64.91 885.84 51.95 878.36 38.98 870.89 38.99 885.85"/><polygon class="cls-1" points="41.21 1080 39 1080 39 1078.72 40.5 1079.58 41.21 1080"/><polygon class="cls-1" points="86.03 84.73 89.81 99.21 75.39 95.24 60.96 91.28 71.61 80.77 82.26 70.25 86.03 84.73"/><polygon class="cls-1" points="86.03 905.04 89.81 890.56 75.39 894.52 60.96 898.49 71.61 909 82.26 919.51 86.03 905.04"/><polygon class="cls-1" points="87.47 1080 62.01 1080 71.61 1070.53 82.26 1060.02 86.04 1074.5 87.47 1080"/><polygon class="cls-1" points="74.94 121.62 71.82 128.37 65.58 121.4 59.33 114.42 68.69 114.64 78.05 114.86 74.94 121.62"/><polygon class="cls-1" points="74.94 868.15 71.82 861.39 65.58 868.37 59.33 875.35 68.69 875.13 78.05 874.91 74.94 868.15"/><polygon class="cls-1" points="74.8 164.23 75.29 171.65 66.47 168.51 57.65 165.36 65.98 161.09 74.3 156.81 74.8 164.23"/><polygon class="cls-1" points="74.8 825.54 75.29 818.11 66.47 821.26 57.65 824.4 65.98 828.68 74.3 832.96 74.8 825.54"/><polygon class="cls-1" points="74.77 193.45 72.01 203.91 65.28 196.54 58.55 189.18 68.04 186.09 77.52 182.99 74.77 193.45"/><polygon class="cls-1" points="74.77 796.32 72.01 785.86 65.28 793.23 58.55 800.59 68.04 803.68 77.52 806.77 74.77 796.32"/><polygon class="cls-1" points="71.62 221.44 72.56 232.21 63.74 227.56 54.91 222.91 62.79 216.78 70.67 210.67 71.62 221.44"/><polygon class="cls-1" points="71.62 768.33 72.56 757.56 63.74 762.21 54.91 766.86 62.79 772.98 70.67 779.1 71.62 768.33"/><polygon class="cls-1" points="72.63 257.13 69.78 267.56 63.12 260.14 56.45 252.71 65.97 249.71 75.48 246.7 72.63 257.13"/><polygon class="cls-1" points="72.63 732.64 69.78 722.2 63.12 729.63 56.45 737.06 65.97 740.06 75.48 743.07 72.63 732.64"/><polygon class="cls-1" points="78.57 281.83 83.77 296.09 70.11 292.99 56.45 289.88 64.92 278.72 73.38 267.56 78.57 281.83"/><polygon class="cls-1" points="78.57 707.94 83.77 693.67 70.11 696.78 56.45 699.89 64.92 711.05 73.38 722.2 78.57 707.94"/><polygon class="cls-1" points="73.88 341.15 73.86 350.85 66.35 345.98 58.84 341.12 66.37 336.28 73.9 331.44 73.88 341.15"/><polygon class="cls-1" points="73.88 648.62 73.86 638.92 66.35 643.79 58.84 648.65 66.37 653.49 73.9 658.32 73.88 648.62"/><polygon class="cls-1" points="72.1 370.46 76.19 379.26 67.32 378.03 58.45 376.8 63.23 369.23 68.01 361.66 72.1 370.46"/><polygon class="cls-1" points="72.1 619.31 76.19 610.51 67.32 611.74 58.45 612.97 63.23 620.54 68.01 628.11 72.1 619.31"/><polygon class="cls-1" points="71.49 405.02 69.25 414.46 63.05 408.01 56.85 401.56 65.29 398.57 73.72 395.58 71.49 405.02"/><polygon class="cls-1" points="71.49 584.74 69.25 575.3 63.05 581.76 56.85 588.21 65.29 591.2 73.72 594.19 71.49 584.74"/><polygon class="cls-1" points="83.53 435.56 71.27 447.98 67.77 432.26 64.28 416.54 80.04 419.84 95.8 423.14 83.53 435.56"/><polygon class="cls-1" points="83.53 554.21 71.27 541.79 67.77 557.51 64.28 573.23 80.04 569.93 95.8 566.63 83.53 554.21"/><polygon class="cls-1" points="72.36 496.88 64 494.91 66.11 505.05 68.22 515.18 74.47 507.02 80.73 498.85 72.36 496.88"/><polygon class="cls-1" points="72.13 460.56 78.05 454.48 70.11 452.69 62.17 450.89 64.19 458.76 66.2 466.64 72.13 460.56"/><polygon class="cls-1" points="75.48 489.85 93.83 489.22 84.13 474.53 74.42 459.84 65.77 475.15 57.13 490.47 75.48 489.85"/><polygon class="cls-1" points="75.94 515.97 61.06 519.3 71.08 529.16 81.1 539.03 85.95 525.83 90.81 512.64 75.94 515.97"/><polygon class="cls-1" points="63.27 421.88 64.28 427.65 59.31 425.55 54.33 423.46 58.29 419.79 62.25 416.12 63.27 421.88"/><polygon class="cls-1" points="63.27 567.88 64.28 562.12 59.31 564.22 54.33 566.31 58.29 569.98 62.25 573.64 63.27 567.88"/><polygon class="cls-1" points="64.32 313.27 65.29 324.04 56.45 319.4 47.62 314.76 55.49 308.63 63.36 302.5 64.32 313.27"/><polygon class="cls-1" points="64.32 676.5 65.29 665.73 56.45 670.37 47.62 675 55.49 681.14 63.36 687.27 64.32 676.5"/><polygon class="cls-1" points="75.42 302.99 72.77 308.16 70.09 303.52 67.41 298.88 72.74 298.35 78.07 297.82 75.42 302.99"/><polygon class="cls-1" points="75.42 686.78 72.77 681.61 70.09 686.25 67.41 690.89 72.74 691.42 78.07 691.95 75.42 686.78"/><polygon class="cls-1" points="72.36 323.81 70.01 325.04 70.24 322.6 70.46 320.16 72.59 321.37 74.72 322.58 72.36 323.81"/><polygon class="cls-1" points="72.36 665.96 70.01 664.73 70.24 667.17 70.46 669.61 72.59 668.4 74.72 667.18 72.36 665.96"/><polygon class="cls-1" points="80.5 209.16 77.8 212.57 76.51 208.77 75.22 204.97 79.21 205.37 83.2 205.76 80.5 209.16"/><polygon class="cls-1" points="80.5 780.6 77.8 777.2 76.51 781 75.22 784.79 79.21 784.4 83.2 784.01 80.5 780.6"/><polygon class="cls-1" points="76.22 146.39 66.06 155.58 63.54 142.59 61.02 129.6 73.7 133.4 86.38 137.19 76.22 146.39"/><polygon class="cls-1" points="76.22 843.38 66.06 834.19 63.54 847.18 61.02 860.17 73.7 856.37 86.38 852.58 76.22 843.38"/><polygon class="cls-1" points="73.29 58.51 73.7 65.11 67.78 62.16 61.86 59.22 67.37 55.56 72.88 51.91 73.29 58.51"/><polygon class="cls-1" points="73.29 931.26 73.7 924.66 67.78 927.61 61.86 930.55 67.37 934.21 72.88 937.86 73.29 931.26"/><polygon class="cls-1" points="73.29 1048.27 73.7 1054.87 67.78 1051.93 61.86 1048.99 67.37 1045.33 72.88 1041.67 73.29 1048.27"/><polygon class="cls-1" points="75.64 14.3 72.43 20.08 69.02 14.41 65.62 8.74 72.23 8.63 78.84 8.52 75.64 14.3"/><polygon class="cls-1" points="75.64 975.47 72.43 969.68 69.02 975.36 65.62 981.02 72.23 981.14 78.84 981.25 75.64 975.47"/><polygon class="cls-1" points="75.64 1004.07 72.43 1009.85 69.02 1004.18 65.62 998.51 72.23 998.4 78.84 998.29 75.64 1004.07"/><polygon class="cls-1" points="32.53 123.76 36.28 108.64 47.5 119.45 58.71 130.26 43.74 134.57 28.78 138.87 32.53 123.76"/><polygon class="cls-1" points="32.53 866.01 36.28 881.13 47.5 870.32 58.71 859.51 43.74 855.2 28.78 850.89 32.53 866.01"/><polygon class="cls-1" points="40.47 138.22 50.61 126.41 55.78 141.1 60.94 155.79 45.63 152.92 30.33 150.04 40.47 138.22"/><polygon class="cls-1" points="40.47 851.54 50.61 863.36 55.78 848.67 60.94 833.98 45.63 836.85 30.33 839.73 40.47 851.54"/><polygon class="cls-1" points="38.26 179.19 35.02 163.96 49.83 168.78 64.64 173.59 53.07 184.01 41.49 194.43 38.26 179.19"/><polygon class="cls-1" points="38.26 810.57 35.02 825.81 49.83 820.99 64.64 816.17 53.07 805.76 41.49 795.34 38.26 810.57"/><polygon class="cls-1" points="40.65 200.49 45.16 185.59 55.82 196.94 66.47 208.3 51.31 211.85 36.15 215.4 40.65 200.49"/><polygon class="cls-1" points="40.65 789.27 45.16 804.18 55.82 792.83 66.47 781.47 51.31 777.92 36.15 774.37 40.65 789.27"/><polygon class="cls-1" points="39.44 244.67 34.18 230.01 49.51 232.79 64.83 235.56 54.77 247.45 44.7 259.33 39.44 244.67"/><polygon class="cls-1" points="39.44 745.1 34.18 759.75 49.51 756.98 64.83 754.21 54.77 742.32 44.7 730.44 39.44 745.1"/><polygon class="cls-1" points="39.4 269.76 39.1 254.19 52.73 261.72 66.37 269.25 53.03 277.29 39.69 285.33 39.4 269.76"/><polygon class="cls-1" points="39.4 720.01 39.1 735.58 52.73 728.05 66.37 720.52 53.03 712.48 39.69 704.44 39.4 720.01"/><polygon class="cls-1" points="47.58 298.31 45.33 289.59 54 292 62.67 294.41 56.25 300.71 49.83 307.02 47.58 298.31"/><polygon class="cls-1" points="47.58 691.46 45.33 700.17 54 697.77 62.67 695.36 56.25 689.06 49.83 682.75 47.58 691.46"/><polygon class="cls-1" points="33.69 329.07 35.78 309.6 51.6 321.15 67.41 332.69 49.51 340.62 31.6 348.54 33.69 329.07"/><polygon class="cls-1" points="33.69 660.7 35.78 680.16 51.6 668.62 67.41 657.08 49.51 649.15 31.6 641.23 33.69 660.7"/><polygon class="cls-1" points="42.86 364.56 32.4 353.01 47.62 349.73 62.85 346.44 58.08 361.27 53.32 376.1 42.86 364.56"/><polygon class="cls-1" points="42.86 625.21 32.4 636.75 47.62 640.04 62.85 643.33 58.08 628.5 53.32 613.67 42.86 625.21"/><polygon class="cls-1" points="42.43 394.65 34.56 381.2 50.14 381.11 65.71 381.02 58 394.56 50.3 408.09 42.43 394.65"/><polygon class="cls-1" points="42.43 595.12 34.56 608.56 50.14 608.65 65.71 608.75 58 595.21 50.3 581.68 42.43 595.12"/><polygon class="cls-1" points="46.49 416.12 44.94 407.26 53.39 410.35 61.84 413.44 54.94 419.21 48.04 424.99 46.49 416.12"/><polygon class="cls-1" points="46.49 573.64 44.94 582.51 53.39 579.42 61.84 576.33 54.94 570.55 48.04 564.78 46.49 573.64"/><polygon class="cls-1" points="35.29 432.26 38.93 413.02 51.03 425.27 63.14 437.52 47.4 444.51 31.66 451.5 35.29 432.26"/><polygon class="cls-1" points="35.29 557.51 38.93 576.75 51.03 564.5 63.14 552.25 47.4 545.26 31.66 538.27 35.29 557.51"/><polygon class="cls-1" points="37.51 445.49 48.54 429.31 54.73 445.38 60.92 461.45 43.7 461.56 26.48 461.67 37.51 445.49"/><polygon class="cls-1" points="37.51 544.28 48.54 560.46 54.73 544.39 60.92 528.32 43.7 528.21 26.48 528.1 37.51 544.28"/><polygon class="cls-1" points="45.38 483.05 38.86 471.22 50.68 472.42 62.5 473.62 57.2 484.25 51.9 494.88 45.38 483.05"/><polygon class="cls-1" points="45.38 506.71 38.86 518.55 50.68 517.35 62.5 516.15 57.2 505.52 51.9 494.88 45.38 506.71"/><polygon class="cls-1" points="39.64 475.15 33.12 463.32 44.94 464.52 56.76 465.72 51.46 476.35 46.16 486.99 39.64 475.15"/><polygon class="cls-1" points="39.64 514.61 33.12 526.45 44.94 525.25 56.76 524.05 51.46 513.42 46.16 502.78 39.64 514.61"/></svg>