<svg id="Ebene_1" data-name="Ebene 1" xmlns="http://www.w3.org/2000/svg" viewBox="0 0 1080 95.8"><defs><style>.cls-1{fill:#001e2a;}</style></defs><title>DesignProfilLineVertical</title><rect class="cls-1" width="1080" height="54"/><polygon class="cls-1" points="1054.34 42.69 1075.43 42.69 1064.89 60.96 1054.34 79.22 1043.79 60.96 1033.24 42.69 1054.34 42.69"/><polygon class="cls-1" points="115.89 42.69 94.8 42.69 105.35 60.96 115.89 79.22 126.44 60.96 136.99 42.69 115.89 42.69"/><polygon class="cls-1" points="64.57 42.69 85.67 42.69 75.12 60.96 64.57 79.22 54.02 60.96 43.48 42.69 64.57 42.69"/><polygon class="cls-1" points="1024.06 36.16 1038.38 31.8 1035 46.38 1031.61 60.96 1020.68 50.74 1009.75 40.52 1024.06 36.16"/><polygon class="cls-1" points="146.17 36.16 131.85 31.8 135.24 46.38 138.62 60.96 149.55 50.74 160.49 40.52 146.17 36.16"/><polygon class="cls-1" points="34.3 36.16 48.61 31.8 45.23 46.38 41.85 60.96 30.91 50.74 19.98 40.52 34.3 36.16"/><polygon class="cls-1" points="1003.2 35.77 1018.75 34.95 1011.68 48.83 1004.62 62.71 996.13 49.65 987.64 36.59 1003.2 35.77"/><polygon class="cls-1" points="167.03 35.77 151.48 34.95 158.55 48.83 165.61 62.71 174.1 49.65 182.59 36.59 167.03 35.77"/><polygon class="cls-1" points="14.85 62.71 9.19 54 6.36 49.65 0.42 40.5 0 39.86 0 36.48 13.43 35.77 28.98 34.95 27.28 38.3 24.16 44.43 21.92 48.83 19.29 54 14.85 62.71"/><polygon class="cls-1" points="976.09 38.99 991.05 39 983.56 51.96 976.07 64.91 968.6 51.95 961.12 38.98 976.09 38.99"/><polygon class="cls-1" points="194.15 38.99 179.18 39 186.67 51.96 194.16 64.91 201.64 51.95 209.11 38.98 194.15 38.99"/><polygon class="cls-1" points="0 41.21 0 39 1.28 39 0.42 40.5 0 41.21"/><polygon class="cls-1" points="995.27 86.03 980.79 89.81 984.76 75.39 988.72 60.96 999.24 71.61 1009.75 82.26 995.27 86.03"/><polygon class="cls-1" points="174.96 86.03 189.44 89.81 185.48 75.39 181.51 60.96 171 71.61 160.49 82.26 174.96 86.03"/><polygon class="cls-1" points="0 87.47 0 62.01 9.47 71.61 19.98 82.26 5.5 86.04 0 87.47"/><polygon class="cls-1" points="958.38 74.94 951.63 71.82 958.6 65.58 965.58 59.33 965.36 68.69 965.14 78.05 958.38 74.94"/><polygon class="cls-1" points="211.85 74.94 218.61 71.82 211.63 65.58 204.66 59.33 204.87 68.69 205.09 78.05 211.85 74.94"/><polygon class="cls-1" points="915.77 74.8 908.35 75.29 911.49 66.47 914.64 57.65 918.91 65.98 923.19 74.3 915.77 74.8"/><polygon class="cls-1" points="254.46 74.8 261.89 75.29 258.74 66.47 255.6 57.65 251.32 65.98 247.04 74.3 254.46 74.8"/><polygon class="cls-1" points="886.55 74.77 876.09 72.01 883.46 65.28 890.82 58.55 893.91 68.04 897.01 77.52 886.55 74.77"/><polygon class="cls-1" points="283.68 74.77 294.14 72.01 286.77 65.28 279.41 58.55 276.32 68.04 273.23 77.52 283.68 74.77"/><polygon class="cls-1" points="858.56 71.62 847.79 72.56 852.44 63.74 857.1 54.91 863.22 62.79 869.33 70.67 858.56 71.62"/><polygon class="cls-1" points="311.67 71.62 322.44 72.56 317.79 63.74 313.14 54.91 307.02 62.79 300.9 70.67 311.67 71.62"/><polygon class="cls-1" points="822.87 72.63 812.44 69.78 819.86 63.12 827.29 56.45 830.29 65.97 833.3 75.48 822.87 72.63"/><polygon class="cls-1" points="347.36 72.63 357.8 69.78 350.37 63.12 342.94 56.45 339.94 65.97 336.93 75.48 347.36 72.63"/><polygon class="cls-1" points="798.17 78.57 783.91 83.77 787.01 70.11 790.12 56.45 801.28 64.92 812.44 73.38 798.17 78.57"/><polygon class="cls-1" points="372.06 78.57 386.32 83.77 383.22 70.11 380.11 56.45 368.95 64.92 357.8 73.38 372.06 78.57"/><polygon class="cls-1" points="738.85 73.88 729.15 73.86 734.02 66.35 738.88 58.84 743.72 66.37 748.55 73.9 738.85 73.88"/><polygon class="cls-1" points="431.38 73.88 441.08 73.86 436.21 66.35 431.35 58.84 426.51 66.37 421.68 73.9 431.38 73.88"/><polygon class="cls-1" points="709.54 72.1 700.74 76.19 701.97 67.32 703.2 58.45 710.77 63.23 718.34 68.01 709.54 72.1"/><polygon class="cls-1" points="460.69 72.1 469.49 76.19 468.26 67.32 467.03 58.45 459.46 63.23 451.89 68.01 460.69 72.1"/><polygon class="cls-1" points="674.98 71.49 665.53 69.25 671.99 63.05 678.44 56.85 681.43 65.29 684.42 73.72 674.98 71.49"/><polygon class="cls-1" points="495.26 71.49 504.7 69.25 498.24 63.05 491.79 56.85 488.8 65.29 485.81 73.72 495.26 71.49"/><polygon class="cls-1" points="644.44 83.53 632.02 71.27 647.74 67.77 663.46 64.28 660.16 80.04 656.86 95.8 644.44 83.53"/><polygon class="cls-1" points="525.79 83.53 538.21 71.27 522.49 67.77 506.77 64.28 510.07 80.04 513.37 95.8 525.79 83.53"/><polygon class="cls-1" points="583.12 72.36 585.09 64 574.95 66.11 564.82 68.22 572.98 74.47 581.15 80.73 583.12 72.36"/><polygon class="cls-1" points="619.44 72.13 625.52 78.05 627.32 70.11 629.11 62.17 621.24 64.19 613.36 66.2 619.44 72.13"/><polygon class="cls-1" points="590.15 75.48 590.78 93.83 605.47 84.13 620.16 74.42 604.85 65.77 589.53 57.13 590.15 75.48"/><polygon class="cls-1" points="564.03 75.94 560.7 61.06 550.84 71.08 540.97 81.1 554.17 85.95 567.36 90.81 564.03 75.94"/><polygon class="cls-1" points="658.12 63.27 652.35 64.28 654.45 59.31 656.54 54.33 660.21 58.29 663.88 62.25 658.12 63.27"/><polygon class="cls-1" points="512.12 63.27 517.88 64.28 515.78 59.31 513.69 54.33 510.02 58.29 506.36 62.25 512.12 63.27"/><polygon class="cls-1" points="766.73 64.32 755.96 65.29 760.6 56.45 765.24 47.62 771.37 55.49 777.5 63.36 766.73 64.32"/><polygon class="cls-1" points="403.5 64.32 414.27 65.29 409.63 56.45 405 47.62 398.86 55.49 392.73 63.36 403.5 64.32"/><polygon class="cls-1" points="777.01 75.42 771.84 72.77 776.48 70.09 781.12 67.41 781.65 72.74 782.18 78.07 777.01 75.42"/><polygon class="cls-1" points="393.22 75.42 398.39 72.77 393.75 70.09 389.11 67.41 388.58 72.74 388.05 78.07 393.22 75.42"/><polygon class="cls-1" points="756.19 72.36 754.96 70.01 757.4 70.24 759.84 70.46 758.63 72.59 757.42 74.72 756.19 72.36"/><polygon class="cls-1" points="414.04 72.36 415.27 70.01 412.83 70.24 410.39 70.46 411.6 72.59 412.81 74.72 414.04 72.36"/><polygon class="cls-1" points="870.84 80.5 867.43 77.8 871.23 76.51 875.03 75.22 874.63 79.21 874.24 83.2 870.84 80.5"/><polygon class="cls-1" points="299.4 80.5 302.8 77.8 299 76.51 295.21 75.22 295.6 79.21 295.99 83.2 299.4 80.5"/><polygon class="cls-1" points="933.61 76.22 924.42 66.06 937.41 63.54 950.4 61.02 946.61 73.7 942.81 86.38 933.61 76.22"/><polygon class="cls-1" points="236.62 76.22 245.81 66.06 232.82 63.54 219.83 61.02 223.63 73.7 227.42 86.38 236.62 76.22"/><polygon class="cls-1" points="1021.5 73.29 1014.89 73.7 1017.84 67.78 1020.78 61.86 1024.44 67.37 1028.1 72.88 1021.5 73.29"/><polygon class="cls-1" points="148.74 73.29 155.34 73.7 152.39 67.78 149.45 61.86 145.79 67.37 142.14 72.88 148.74 73.29"/><polygon class="cls-1" points="31.73 73.29 25.13 73.7 28.07 67.78 31.01 61.86 34.67 67.37 38.33 72.88 31.73 73.29"/><polygon class="cls-1" points="1065.7 75.64 1059.92 72.43 1065.59 69.02 1071.26 65.62 1071.37 72.23 1071.48 78.84 1065.7 75.64"/><polygon class="cls-1" points="104.53 75.64 110.31 72.43 104.64 69.02 98.98 65.62 98.86 72.23 98.75 78.84 104.53 75.64"/><polygon class="cls-1" points="75.93 75.64 70.15 72.43 75.82 69.02 81.49 65.62 81.6 72.23 81.71 78.84 75.93 75.64"/><polygon class="cls-1" points="956.24 32.53 971.36 36.28 960.55 47.5 949.74 58.71 945.43 43.74 941.13 28.78 956.24 32.53"/><polygon class="cls-1" points="213.99 32.53 198.88 36.28 209.68 47.5 220.49 58.71 224.8 43.74 229.1 28.78 213.99 32.53"/><polygon class="cls-1" points="941.78 40.47 953.59 50.61 938.9 55.78 924.21 60.94 927.08 45.63 929.96 30.33 941.78 40.47"/><polygon class="cls-1" points="228.46 40.47 216.64 50.61 231.33 55.78 246.02 60.94 243.15 45.63 240.28 30.33 228.46 40.47"/><polygon class="cls-1" points="900.81 38.26 916.04 35.02 911.22 49.83 906.4 64.64 895.99 53.07 885.57 41.49 900.81 38.26"/><polygon class="cls-1" points="269.43 38.26 254.19 35.02 259.01 49.83 263.83 64.64 274.24 53.07 284.66 41.49 269.43 38.26"/><polygon class="cls-1" points="879.51 40.65 894.41 45.16 883.06 55.82 871.7 66.47 868.15 51.31 864.6 36.15 879.51 40.65"/><polygon class="cls-1" points="290.73 40.65 275.82 45.16 287.17 55.82 298.53 66.47 302.08 51.31 305.63 36.15 290.73 40.65"/><polygon class="cls-1" points="835.33 39.44 849.99 34.18 847.21 49.51 844.44 64.83 832.55 54.77 820.67 44.7 835.33 39.44"/><polygon class="cls-1" points="334.9 39.44 320.25 34.18 323.02 49.51 325.79 64.83 337.68 54.77 349.56 44.7 334.9 39.44"/><polygon class="cls-1" points="810.24 39.4 825.81 39.1 818.28 52.73 810.75 66.37 802.71 53.03 794.67 39.69 810.24 39.4"/><polygon class="cls-1" points="359.99 39.4 344.42 39.1 351.95 52.73 359.48 66.37 367.52 53.03 375.56 39.69 359.99 39.4"/><polygon class="cls-1" points="781.7 47.58 790.41 45.33 788 54 785.59 62.67 779.29 56.25 772.98 49.83 781.7 47.58"/><polygon class="cls-1" points="388.54 47.58 379.83 45.33 382.23 54 384.64 62.67 390.94 56.25 397.25 49.83 388.54 47.58"/><polygon class="cls-1" points="750.93 33.69 770.4 35.78 758.85 51.6 747.31 67.41 739.38 49.51 731.46 31.6 750.93 33.69"/><polygon class="cls-1" points="419.31 33.69 399.83 35.78 411.38 51.6 422.92 67.41 430.85 49.51 438.77 31.6 419.31 33.69"/><polygon class="cls-1" points="715.45 42.86 726.99 32.4 730.27 47.62 733.56 62.85 718.73 58.08 703.9 53.32 715.45 42.86"/><polygon class="cls-1" points="454.79 42.86 443.25 32.4 439.96 47.62 436.67 62.85 451.5 58.08 466.33 53.32 454.79 42.86"/><polygon class="cls-1" points="685.35 42.43 698.79 34.56 698.89 50.14 698.98 65.71 685.44 58 671.91 50.3 685.35 42.43"/><polygon class="cls-1" points="484.88 42.43 471.44 34.56 471.35 50.14 471.25 65.71 484.79 58 498.32 50.3 484.88 42.43"/><polygon class="cls-1" points="663.88 46.49 672.74 44.94 669.65 53.39 666.56 61.84 660.79 54.94 655.01 48.04 663.88 46.49"/><polygon class="cls-1" points="506.36 46.49 497.49 44.94 500.58 53.39 503.67 61.84 509.44 54.94 515.22 48.04 506.36 46.49"/><polygon class="cls-1" points="647.74 35.29 666.98 38.93 654.73 51.03 642.48 63.14 635.49 47.4 628.5 31.66 647.74 35.29"/><polygon class="cls-1" points="522.49 35.29 503.25 38.93 515.5 51.03 527.75 63.14 534.74 47.4 541.73 31.66 522.49 35.29"/><polygon class="cls-1" points="634.51 37.51 650.69 48.54 634.62 54.73 618.55 60.92 618.44 43.7 618.34 26.48 634.51 37.51"/><polygon class="cls-1" points="535.72 37.51 519.54 48.54 535.61 54.73 551.68 60.92 551.79 43.7 551.9 26.48 535.72 37.51"/><polygon class="cls-1" points="596.95 45.38 608.78 38.86 607.58 50.68 606.38 62.5 595.75 57.2 585.12 51.9 596.95 45.38"/><polygon class="cls-1" points="573.28 45.38 561.45 38.86 562.65 50.68 563.85 62.5 574.48 57.2 585.12 51.9 573.28 45.38"/><polygon class="cls-1" points="604.85 39.64 616.68 33.12 615.48 44.94 614.28 56.76 603.65 51.46 593.01 46.16 604.85 39.64"/><polygon class="cls-1" points="565.39 39.64 553.55 33.12 554.75 44.94 555.95 56.76 566.58 51.46 577.22 46.16 565.39 39.64"/></svg>