<svg id="Ebene_1" data-name="Ebene 1" xmlns="http://www.w3.org/2000/svg" width="478.14" height="59.21" viewBox="0 0 478.14 59.21">
  <defs>
    <style>
      .cls-1 {
        fill: #fff;
      }
    </style>
  </defs>
  <title>HelloWorld</title>
  <g>
    <path class="cls-1" d="M23,35.4l20.32,7.16v10l-30.69-13V31.12l30.69-13v10Z" transform="translate(-12.64 -2.67)"/>
    <path class="cls-1" d="M94.72,57.42H84V35.18H63.18V57.42H52.49V5.52H63.18v21H84v-21H94.72Z" transform="translate(-12.64 -2.67)"/>
    <path class="cls-1" d="M121.14,58.14q-8.49,0-13.81-5.21T102,39.07v-1a23.25,23.25,0,0,1,2.24-10.39,16.54,16.54,0,0,1,6.36-7.06,17.91,17.91,0,0,1,9.4-2.48q7.91,0,12.45,5T137,37.28v4.21H112.44a9.58,9.58,0,0,0,3,6.06,9.12,9.12,0,0,0,6.36,2.28,11.15,11.15,0,0,0,9.31-4.31l5.06,5.67a15.55,15.55,0,0,1-6.27,5.11A20.65,20.65,0,0,1,121.14,58.14ZM120,26.45a6.45,6.45,0,0,0-5,2.07,10.75,10.75,0,0,0-2.44,5.95h14.33v-.83A7.65,7.65,0,0,0,125,28.33,6.61,6.61,0,0,0,120,26.45Z" transform="translate(-12.64 -2.67)"/>
    <path class="cls-1" d="M153.72,57.42H143.38V2.67h10.34Z" transform="translate(-12.64 -2.67)"/>
    <path class="cls-1" d="M173.07,57.42H162.73V2.67h10.34Z" transform="translate(-12.64 -2.67)"/>
    <path class="cls-1" d="M180,37.78a23,23,0,0,1,2.21-10.23,16.17,16.17,0,0,1,6.36-6.95,18.59,18.59,0,0,1,9.65-2.46,17.58,17.58,0,0,1,12.74,4.78q4.93,4.77,5.51,13l.07,2.64q0,8.88-5,14.24t-13.29,5.37q-8.34,0-13.32-5.35t-5-14.54Zm10.3.73q0,5.51,2.07,8.41a7.43,7.43,0,0,0,11.76,0c1.4-1.92,2.11-5,2.11-9.2,0-3.59-.71-6.37-2.11-8.35a6.83,6.83,0,0,0-5.91-3,6.74,6.74,0,0,0-5.85,2.94Q190.25,32.35,190.25,38.51Z" transform="translate(-12.64 -2.67)"/>
    <path class="cls-1" d="M282.11,42.45l7-36.93h10.66l-11.51,51.9H277.47L269,22.71l-8.45,34.71H249.81L238.3,5.52H249l7,36.86,8.56-36.86h9Z" transform="translate(-12.64 -2.67)"/>
    <path class="cls-1" d="M302.14,37.78a23,23,0,0,1,2.21-10.23,16.17,16.17,0,0,1,6.36-6.95,18.56,18.56,0,0,1,9.64-2.46,17.59,17.59,0,0,1,12.75,4.78q4.93,4.77,5.5,13l.08,2.64q0,8.88-5,14.24t-13.29,5.37q-8.34,0-13.32-5.35t-5-14.54Zm10.3.73q0,5.51,2.07,8.41a7.43,7.43,0,0,0,11.76,0c1.4-1.92,2.1-5,2.1-9.2q0-5.38-2.1-8.35a6.84,6.84,0,0,0-5.92-3,6.72,6.72,0,0,0-5.84,2.94Q312.44,32.35,312.44,38.51Z" transform="translate(-12.64 -2.67)"/>
    <path class="cls-1" d="M366.69,28.52a28.08,28.08,0,0,0-3.7-.29q-5.85,0-7.67,4V57.42H345V18.86h9.73l.29,4.59q3.09-5.31,8.59-5.31a10.78,10.78,0,0,1,3.21.47Z" transform="translate(-12.64 -2.67)"/>
    <path class="cls-1" d="M382.52,57.42H372.18V2.67h10.34Z" transform="translate(-12.64 -2.67)"/>
    <path class="cls-1" d="M389.4,37.85q0-9,4-14.36a13.15,13.15,0,0,1,11.07-5.35,11.82,11.82,0,0,1,9.3,4.21V2.67h10.34V57.42h-9.3l-.5-4.1a12.13,12.13,0,0,1-9.91,4.82,13.1,13.1,0,0,1-10.93-5.37Q389.4,47.42,389.4,37.85Zm10.3.77q0,5.43,1.89,8.32a6.15,6.15,0,0,0,5.49,2.89,6.88,6.88,0,0,0,6.73-4V30.55a6.78,6.78,0,0,0-6.66-4Q399.7,26.52,399.7,38.62Z" transform="translate(-12.64 -2.67)"/>
    <path class="cls-1" d="M435.38,61.88h-7.66l19.1-56.36h7.67Z" transform="translate(-12.64 -2.67)"/>
    <path class="cls-1" d="M480.43,35.29l-20.71-7.24V18.14l31,13v8.38l-31,13V42.63Z" transform="translate(-12.64 -2.67)"/>
  </g>
</svg>
