<svg xmlns="http://www.w3.org/2000/svg" viewBox="0 0 417.93 418.4"><defs><style>.cls-1{fill:#c2d21e;}</style></defs><title>Facebook</title><g id="Ebene_2" data-name="Ebene 2"><g id="Ebene_1-2" data-name="Ebene 1"><path class="cls-1" d="M417.93,209.21A209.24,209.24,0,0,1,288.14,402.8q.15-73.95,0-147.9c0-4.13,1.75-4.67,5.2-4.64,14.44.14,28.89-.1,43.31.15,4.37.08,6.25-.69,6.11-5.67-.36-13.31-.36-26.66,0-40,.14-5-1.75-5.74-6.11-5.67-14.22.25-28.44-.1-42.65.21-4.79.1-6-1.46-5.88-6,.3-12,.1-24,.1-36,0-20.15,12.88-33.57,33.21-34.35,7.1-.28,14.22-.25,21.32,0,4,.16,5.42-.9,5.33-5.15-.29-12-.34-24,0-36,.13-4.67-1.64-5.4-5.74-5.35-16.21.19-32.43.06-48.65.08-34.14,0-60.75,26.3-61.1,60.55-.2,18.44-.26,36.89.09,55.32.11,5.7-1.76,7-7.16,6.89-14-.37-28,0-42-.19-3.65,0-5,.83-5,4.75.22,13.77.24,27.55,0,41.31-.07,4.11,1.08,5.3,5.19,5.22,14.22-.25,28.45.15,42.65-.21,5.17-.13,6.26,1.6,6.24,6.44q-.24,78.32,0,156.61a8.12,8.12,0,0,1-.65,3.87,210.16,210.16,0,0,1-23.26,1.28C98,418.4,7.29,332.3,0,223.38V195C7.29,86.1,98,0,208.74,0,324.27,0,417.93,93.67,417.93,209.21Z"/></g></g></svg>