<svg xmlns="http://www.w3.org/2000/svg" viewBox="0 0 420.77 420.78"><defs><style>.cls-1{fill:#c2d21e;}</style></defs><title>Mail_2</title><g id="Ebene_2" data-name="Ebene 2"><g id="Ebene_1-2" data-name="Ebene 1"><path class="cls-1" d="M210.39,0C94.19,0,0,94.2,0,210.39S94.19,420.78,210.39,420.78s210.38-94.2,210.38-210.39S326.58,0,210.39,0ZM79.16,122.31a16,16,0,0,1,7.08-1.2H335c3,0,5.86.2,8.32,2.11s2.5,2.52-.13,4.26l-78.27,51.46Q241.26,194.46,217.64,210c-5.11,3.33-10.49,3.53-15.63.17q-61.75-40.29-123.45-80.69c-1.28-.84-3.39-1.28-3.2-3.18C75.55,124.23,77.4,123.14,79.16,122.31ZM75.59,298c-1-.45-.94-1.89-1-3,0-.81,0-1.62,0-2.42V134.24c33.05,21.57,65.58,42.84,98.17,64,2.15,1.39,2.42,2,.47,3.92q-47.73,47-95.36,94.2C77.22,297.06,76.6,298.45,75.59,298Zm5.79,4.1c.28-1.36,1.23-1.87,1.9-2.56q47.41-46.91,94.8-93.86c1.84-1.84,3-2.1,5.24-.57,6,4.15,12.1,8,18.16,12a14,14,0,0,0,16.15,0c6.64-4.39,13.3-8.73,19.91-13.17,1.25-.85,2.05-1.06,3.3.17q48.87,48.45,97.82,96.84c.19.2.33.47.83,1.19ZM346,293.69c0,1.51.37,3.59-.92,4.21s-2.19-1.38-3.13-2.3Q294.66,249,247.49,202.26c-.94-.91-2-1.72-3.16-2.75,2.6-1.73,4.76-3.18,6.93-4.61q45.58-29.93,91.16-59.85c.89-.58,1.8-1.87,2.84-1.34,1.2.61.69,2.16.69,3.31Q346,215.35,346,293.69Z"/></g></g></svg>