<svg xmlns="http://www.w3.org/2000/svg" viewBox="0 0 417.56 417.56"><defs><style>.cls-1{fill:#c2d21e;}</style></defs><title>Twitter_1</title><g id="Ebene_2" data-name="Ebene 2"><g id="Ebene_1-2" data-name="Ebene 1"><path class="cls-1" d="M417.43,208.21c0-2.16,0-4.31,0-6.46C413.73,89.71,321.73,0,208.79,0,93.47,0,0,93.47,0,208.77S93.47,417.56,208.79,417.56s208.77-93.47,208.77-208.79v-.56Zm-90.8-61.52c-5.22,3.89-7.05,8.06-7.16,14.73-1.23,76.5-54.08,140.69-128.89,155.82-40.15,8.12-78.68,2.31-114.75-17.73a21.83,21.83,0,0,1-5-3.72c29.56,1.8,56.44-5.22,81.45-23.42-4.33-.82-7.61-1.29-10.81-2.07-18.21-4.43-31.47-15-39.51-32-1.73-3.66-1.94-5.49,3.18-5.16,5.87.37,11.89,1,18.22-1.63-27.23-8.67-41.92-26.76-43.95-55.55,7.87,2.34,14.75,6.57,24,5.64C89.33,169.7,81,155.9,80.38,138.05a57.35,57.35,0,0,1,7.31-30.71c7.5,7.45,14.12,14.74,21.71,21.07,25.95,21.62,55.94,33.38,89.25,37.34,4.8.57,7.12.57,6.38-6.08-2.71-24.25,9.43-46,30.51-56.6a57.79,57.79,0,0,1,64.6,8.22c2.76,2.48,5.06,3.12,8.79,2.19,10.5-2.61,20.28-6.84,30.87-12.26-3.62,12.4-10.95,20.76-19.91,28,.37,2.05.65,2.13,3.93,1.21,7.43-.58,14.24-3.85,22.89-6A75.35,75.35,0,0,1,326.63,146.69Z"/></g></g></svg>