<?xml version="1.0" encoding="utf-8"?>
<!-- Generator: Adobe Illustrator 22.1.0, SVG Export Plug-In . SVG Version: 6.00 Build 0)  -->
<svg version="1.1" id="Capa_1" xmlns="http://www.w3.org/2000/svg" xmlns:xlink="http://www.w3.org/1999/xlink" x="0px" y="0px"
	 viewBox="0 0 512 512" style="enable-background:new 0 0 512 512;" xml:space="preserve">
<style type="text/css">
	.st0{fill:#001E2A;}
	.st1{fill:#FFF;}
</style>
<g>
	<g>
		<path class="st0" d="M256,0L256,0c141.4,0,256,114.6,256,256v0c0,141.4-114.6,256-256,256h0C114.6,512,0,397.4,0,256v0
			C0,114.6,114.6,0,256,0z"/>
		<path class="st1" d="M426.6,289c2-10.2,3-20.8,3-31.6c0-90.8-73.6-164.4-164.4-164.4c-10.8,0-21.4,1.1-31.6,3
			c-14-8.2-30.2-12.9-47.5-13c-51.5-0.2-94.1,41.3-95.2,92.8c-0.4,18.3,4.4,35.4,12.9,50c-2,10.2-3,20.8-3,31.6
			c0,90.8,73.6,164.4,164.4,164.4c10.8,0,21.4-1.1,31.6-3c14.1,8.2,30.4,13,47.8,13c52.4,0,94.9-42.5,94.9-94.9
			C439.6,319.4,434.9,303.1,426.6,289z M268.4,370.3c-58.4,0-87.6-21.9-96.6-49.4s10.7-35.4,16.9-36c6.2-0.6,19.3,0.9,23,12.4
			c3.9,11.9,16.9,35.4,44.9,38.2c28.1,2.8,46.6-10.1,52.2-23.6c5.6-13.5-4.5-32-47.7-38.2s-88.2-25.3-88.2-68.5s49.4-60.7,96.6-60.7
			s71.1,26.6,76.4,37.1c6.6,12.9,4.3,34.4-11.2,38.2c-16.3,3.9-24.7-5.1-36.5-27c-12.2-22.7-55.6-16.9-70.2-3.9s-10.7,31.5,50,43.3
			s83.1,33.7,83.1,68S326.8,370.3,268.4,370.3z"/>
	</g>
</g>
</svg>
